<svg width="8" height="18" viewBox="0 0 8 18" fill="none" xmlns="http://www.w3.org/2000/svg">
<path fill-rule="evenodd" clip-rule="evenodd" d="M7.69659 0H6.74274C4.0912 0 1.93349 2.20201 1.93349 4.90934V6.98007H0.304304C0.136136 6.98007 0 7.12034 0 7.29207V9.77461C0 9.94635 0.136136 10.0848 0.304304 10.0848H1.93349V17.688C1.93349 17.8597 2.06963 18 2.23779 18H4.66867C4.83684 18 4.97297 17.8597 4.97297 17.688V10.0848H7.39139C7.55956 10.0848 7.6957 9.94635 7.6957 9.77461V7.29207C7.6957 7.12034 7.55956 6.98007 7.39139 6.98007H4.97297V4.90934C4.97297 3.91398 5.76666 3.10385 6.74185 3.10385H7.69659C7.86386 3.10385 8 2.96358 8 2.79275V0.309306C8 0.138468 7.86386 0 7.69659 0Z" fill="white"/>
</svg>
