<svg width="48" height="48" viewBox="0 0 48 48" fill="none" xmlns="http://www.w3.org/2000/svg">
<circle cx="24" cy="24" r="23" stroke="white" stroke-opacity="0.3" stroke-width="2"/>
<path fill-rule="evenodd" clip-rule="evenodd" d="M27.6966 15H26.7427C24.0912 15 21.9335 17.202 21.9335 19.9093V21.9801H20.3043C20.1361 21.9801 20 22.1203 20 22.2921V24.7746C20 24.9464 20.1361 25.0848 20.3043 25.0848H21.9335V32.688C21.9335 32.8597 22.0696 33 22.2378 33H24.6687C24.8368 33 24.973 32.8597 24.973 32.688V25.0848H27.3914C27.5596 25.0848 27.6957 24.9464 27.6957 24.7746V22.2921C27.6957 22.1203 27.5596 21.9801 27.3914 21.9801H24.973V19.9093C24.973 18.914 25.7667 18.1039 26.7419 18.1039H27.6966C27.8639 18.1039 28 17.9636 28 17.7927V15.3093C28 15.1385 27.8639 15 27.6966 15Z" fill="white"/>
</svg>
