<svg width="20" height="20" viewBox="0 0 20 20" fill="none" xmlns="http://www.w3.org/2000/svg">
<path fill-rule="evenodd" clip-rule="evenodd" d="M14.4807 20H5.51909C2.47587 20 0 17.5241 0 14.4807V5.51929C0 2.47598 2.47587 0 5.51909 0H14.4807C17.5241 0 20.0001 2.47598 20 5.51929V14.4807C20 17.524 17.5241 20 14.4807 20ZM18.2256 14.4807V5.51929C18.2256 3.45444 16.5455 1.77444 14.4807 1.77444H5.51909C3.45434 1.77444 1.77445 3.45444 1.77445 5.51929V14.4807C1.77445 16.5457 3.45434 18.2257 5.51909 18.2256H14.4808C16.5457 18.2256 18.2257 16.5457 18.2257 14.4807H18.2256ZM15.3697 5.94462C15.0278 5.94462 14.6918 5.80509 14.4505 5.56379C14.2079 5.32118 14.0684 4.98533 14.0684 4.64331C14.0684 4.30024 14.2078 3.96426 14.4505 3.72296C14.6919 3.48047 15.0278 3.34201 15.3697 3.34201C15.7128 3.34201 16.0487 3.48047 16.29 3.72296C16.5325 3.96426 16.671 4.30024 16.671 4.64331C16.671 4.98521 16.5325 5.32118 16.29 5.56379C16.0476 5.80509 15.7128 5.94462 15.3697 5.94462ZM9.99994 15.1535C7.15827 15.1535 4.84654 12.8418 4.84654 10.0002C4.84654 7.15858 7.15827 4.84675 9.99994 4.84675C12.8417 4.84675 15.1535 7.15858 15.1535 10.0002C15.1535 12.8418 12.8417 15.1535 9.99994 15.1535ZM9.99994 6.62107C8.13673 6.62107 6.62099 8.13692 6.62099 10.0001C6.62099 11.8632 8.13685 13.3789 9.99994 13.3789C11.8631 13.3789 13.379 11.8632 13.379 10.0001C13.379 8.13692 11.8633 6.62107 9.99994 6.62107Z" fill="white"/>
</svg>
