<svg width="48" height="48" viewBox="0 0 48 48" fill="none" xmlns="http://www.w3.org/2000/svg">
<circle cx="24" cy="24" r="23" stroke="white" stroke-opacity="0.3" stroke-width="2"/>
<path fill-rule="evenodd" clip-rule="evenodd" d="M28.4807 34H19.5191C16.4759 34 14 31.5241 14 28.4807V19.5193C14 16.476 16.4759 14 19.5191 14H28.4807C31.5241 14 34.0001 16.476 34 19.5193V28.4807C34 31.524 31.5241 34 28.4807 34ZM32.2256 28.4807V19.5193C32.2256 17.4544 30.5455 15.7744 28.4807 15.7744H19.5191C17.4543 15.7744 15.7744 17.4544 15.7744 19.5193V28.4807C15.7744 30.5457 17.4543 32.2257 19.5191 32.2256H28.4808C30.5457 32.2256 32.2257 30.5457 32.2257 28.4807H32.2256ZM29.3697 19.9446C29.0278 19.9446 28.6918 19.8051 28.4505 19.5638C28.2079 19.3212 28.0684 18.9853 28.0684 18.6433C28.0684 18.3002 28.2078 17.9643 28.4505 17.723C28.6919 17.4805 29.0278 17.342 29.3697 17.342C29.7128 17.342 30.0487 17.4805 30.29 17.723C30.5325 17.9643 30.671 18.3002 30.671 18.6433C30.671 18.9852 30.5325 19.3212 30.29 19.5638C30.0476 19.8051 29.7128 19.9446 29.3697 19.9446ZM23.9999 29.1535C21.1583 29.1535 18.8465 26.8418 18.8465 24.0002C18.8465 21.1586 21.1583 18.8467 23.9999 18.8467C26.8417 18.8467 29.1535 21.1586 29.1535 24.0002C29.1535 26.8418 26.8417 29.1535 23.9999 29.1535ZM23.9999 20.6211C22.1367 20.6211 20.621 22.1369 20.621 24.0001C20.621 25.8632 22.1369 27.3789 23.9999 27.3789C25.8631 27.3789 27.379 25.8632 27.379 24.0001C27.379 22.1369 25.8633 20.6211 23.9999 20.6211Z" fill="white"/>
</svg>
