<svg width="140" height="63" viewBox="0 0 140 63" fill="none" xmlns="http://www.w3.org/2000/svg">
<path d="M0.104902 54.1233L11.4427 20.1116C11.4623 17.8169 11.4623 15.6778 11.4427 13.6943C11.4232 11.6913 11.384 9.92173 11.3252 8.38547C11.3057 7.80208 11.4427 7.27703 11.7365 6.81031C12.0498 6.3436 12.3827 6.02273 12.7351 5.84772C13.1072 5.6727 13.4303 5.69215 13.7044 5.90606C13.9786 6.10052 14.0863 6.57696 14.0275 7.33536C13.9884 7.72429 13.9394 8.45353 13.8807 9.52308C13.8219 10.5926 13.7436 11.9053 13.6457 13.461C14.2136 11.7497 14.7423 10.1648 15.2318 8.70633C15.7214 7.22841 16.1522 5.94495 16.5242 4.85596C16.8963 3.74751 17.19 2.85298 17.4054 2.17236C17.6208 1.49174 17.7481 1.08336 17.7872 0.947241C17.9635 0.363851 18.2278 0.0527094 18.5803 0.0138177C18.9523 -0.0445226 19.3048 0.0818778 19.6377 0.393019C19.9706 0.704162 20.2252 1.14171 20.4014 1.70565C20.5776 2.26959 20.5678 2.86271 20.372 3.48499C20.3133 3.67945 20.0783 4.3309 19.6671 5.43935C19.2559 6.52834 18.7174 7.9382 18.0516 9.66892C17.4054 11.3802 16.6613 13.354 15.8193 15.5903C14.9772 17.8072 14.0863 20.1408 13.1464 22.591C13.0289 24.8662 12.9016 27.2095 12.7645 29.6209C12.6274 32.0128 12.4904 34.3172 12.3533 36.534C12.2162 38.7509 12.0791 40.8025 11.9421 42.6888C11.8246 44.5751 11.7169 46.1503 11.619 47.4143C12.3239 46.1503 13.1855 44.721 14.2038 43.1264C15.222 41.5317 16.3284 39.8302 17.5229 38.0217C18.7369 36.1937 20.0196 34.288 21.3707 32.3045C22.7218 30.3209 24.1023 28.3082 25.5122 26.2664C26.9221 24.2051 28.3222 22.1535 29.7125 20.1116C31.1224 18.0697 32.4736 16.0765 33.7659 14.1319C35.0583 12.1872 36.2724 10.3301 37.4082 8.56048C38.5635 6.77142 39.5915 5.1282 40.4923 3.63084L40.5804 3.48499L40.786 3.01828C41.0602 2.3571 41.4126 2.02651 41.8434 2.02651C42.2742 2.02651 42.6561 2.2307 42.989 2.63907C43.3218 3.028 43.547 3.56277 43.6645 4.2434C43.8016 4.90457 43.7037 5.58519 43.3708 6.28526C42.0392 9.10498 40.8252 11.7108 39.7286 14.1027C38.632 16.4751 37.6236 18.7212 36.7032 20.8408C35.7829 22.941 34.9311 24.9537 34.1478 26.8789C33.3841 28.7847 32.6596 30.6807 31.9742 32.567C31.3084 34.4338 30.672 36.3299 30.065 38.255C29.4775 40.1802 28.8901 42.2026 28.3026 44.3223C28.1851 44.7501 28.0481 45.0321 27.8914 45.1682C27.7348 45.3238 27.5879 45.3627 27.4508 45.2849C27.3333 45.2071 27.2452 45.0224 27.1865 44.7307C27.1473 44.439 27.1865 44.0598 27.304 43.5931C28.0872 40.1316 29.1544 36.0576 30.5056 31.371C31.8567 26.665 33.6485 21.3173 35.8808 15.3278C34.373 17.4475 32.8064 19.6449 31.1812 21.9201C29.5559 24.1953 27.9502 26.4608 26.364 28.7166C24.7779 30.9529 23.231 33.1212 21.7232 35.2214C20.2349 37.3022 18.8544 39.2274 17.5816 40.997C16.3284 42.786 15.222 44.3515 14.2625 45.6933C13.3226 47.0351 12.5981 48.0657 12.0889 48.7852C11.8931 49.0769 11.6777 49.2811 11.4427 49.3978C11.2273 49.5145 11.0315 49.5534 10.8553 49.5145C10.6791 49.495 10.5322 49.3881 10.4147 49.1936C10.3168 49.0186 10.2874 48.7658 10.3266 48.4352C10.4441 47.1129 10.5518 45.6349 10.6497 44.0014C10.7672 42.3874 10.8651 40.6761 10.9434 38.8676C11.0413 37.0591 11.1196 35.1825 11.1784 33.2379C11.2371 31.2933 11.2861 29.3486 11.3252 27.404C10.5028 29.582 9.68038 31.76 8.85795 33.938C8.03551 36.0965 7.24245 38.1675 6.47877 40.1511C5.71508 42.154 5.00034 44.0209 4.33456 45.7516C3.68836 47.4823 3.12049 48.9991 2.63095 50.3021C2.1414 51.605 1.74977 52.6453 1.45604 53.4232C1.16232 54.2205 0.995872 54.6775 0.956709 54.7942C0.8588 55.1053 0.731519 55.2998 0.574864 55.3775C0.437792 55.4748 0.320302 55.4748 0.222393 55.3775C0.124484 55.2998 0.0559479 55.1442 0.0167844 54.9108C-0.0223792 54.6969 0.00699349 54.4344 0.104902 54.1233Z" fill="white"/>
<path d="M42.6457 32.4211C42.6065 32.7517 42.5184 33.1795 42.3813 33.7046C42.2638 34.2102 42.1267 34.7158 41.9701 35.2214C41.833 35.7076 41.7057 36.1548 41.5882 36.5632C41.4708 36.9716 41.412 37.2341 41.412 37.3508C41.5491 37.3508 41.7743 37.1272 42.0876 36.6799C42.4009 36.2132 42.7729 35.6201 43.2037 34.9005C43.6345 34.181 44.1143 33.374 44.643 32.4795C45.1717 31.5655 45.72 30.6515 46.2879 29.7375C46.5816 29.2708 46.8459 28.9597 47.0809 28.8041C47.3355 28.6486 47.5215 28.6194 47.639 28.7166C47.7761 28.7944 47.825 28.9889 47.7859 29.3C47.7663 29.6111 47.6096 30.0098 47.3159 30.496C46.748 31.4683 46.19 32.4114 45.6417 33.3254C45.113 34.2199 44.6136 35.0464 44.1437 35.8048C43.6737 36.5438 43.2429 37.1758 42.8513 37.7008C42.4792 38.2259 42.1659 38.6051 41.9113 38.8384C41.4414 39.2468 41.0106 39.3732 40.6189 39.2176C40.2469 39.0426 40.0315 38.6245 39.9728 37.9633C39.9336 37.73 39.914 37.4383 39.914 37.0883C39.9336 36.7188 39.963 36.3493 40.0021 35.9798C39.7084 36.641 39.3657 37.2924 38.9741 37.9342C38.5824 38.5565 38.1614 39.1107 37.7111 39.5968C37.2607 40.0636 36.8005 40.4136 36.3305 40.6469C35.8606 40.8997 35.3906 40.9581 34.9207 40.822C34.4899 40.6858 34.2255 40.2969 34.1276 39.6552C34.0101 39.0135 34.0297 38.2356 34.1863 37.3216C34.343 36.3882 34.6171 35.377 35.0088 34.288C35.4004 33.1796 35.8802 32.1003 36.448 31.0502C37.0159 30.0001 37.6621 29.0472 38.3866 28.1916C39.1307 27.3165 39.914 26.6359 40.7364 26.1497C41.2651 25.8386 41.7449 25.6635 42.1757 25.6246C42.6065 25.5663 42.9786 25.5955 43.2919 25.7122C43.6052 25.8094 43.8499 25.965 44.0262 26.1789C44.2024 26.3928 44.3101 26.6164 44.3493 26.8498C44.408 27.0637 44.3787 27.2679 44.2612 27.4623C44.1632 27.6373 43.987 27.754 43.7325 27.8124C42.7534 28.0263 41.8428 28.4638 41.0008 29.125C40.1588 29.7862 39.3951 30.5543 38.7097 31.4294C38.0439 32.3045 37.4663 33.2282 36.9767 34.2005C36.4676 35.1534 36.0662 36.0479 35.7725 36.8841C35.4592 37.7008 35.2633 38.3912 35.185 38.9551C35.1067 39.4996 35.1458 39.801 35.3025 39.8594C35.4983 39.9177 35.7529 39.8205 36.0662 39.5677C36.3599 39.3149 36.683 38.9648 37.0355 38.5176C37.3684 38.0509 37.7111 37.5161 38.0635 36.9132C38.416 36.3104 38.7293 35.6978 39.0035 35.0756C39.2972 34.4533 39.542 33.8407 39.7378 33.2379C39.9336 32.635 40.0511 32.11 40.0902 31.6627C40.1098 31.3127 40.2665 31.0696 40.5602 30.9335C40.8539 30.7779 41.1574 30.739 41.4708 30.8168C41.8036 30.8752 42.0974 31.0405 42.3519 31.3127C42.6065 31.5849 42.7044 31.9544 42.6457 32.4211Z" fill="white"/>
<path d="M51.4354 23.9912C51.0634 25.0024 50.6228 26.2372 50.1137 27.6957C49.6045 29.1542 49.0464 30.7488 48.4394 32.4795C49.3206 31.0793 50.1332 29.9515 50.8773 29.0958C51.641 28.2402 52.3166 27.5887 52.9041 27.1415C53.5111 26.6942 54.03 26.4317 54.4608 26.3539C54.8916 26.2567 55.2343 26.2858 55.4888 26.4414C55.7434 26.597 55.9001 26.8498 55.9588 27.1998C56.0176 27.5498 55.9784 27.929 55.8413 28.3374C55.5476 29.1542 55.1853 30.0681 54.7545 31.0793C54.3433 32.0906 53.9419 33.0531 53.5503 33.9671C53.0803 35.0367 52.6005 36.1159 52.111 37.2049C52.7572 36.5827 53.423 35.8826 54.1083 35.1047C54.6958 34.4436 55.3518 33.6657 56.0763 32.7712C56.8204 31.8572 57.5645 30.846 58.3086 29.7375C58.6023 29.2903 58.8765 28.9889 59.1311 28.8333C59.3856 28.6777 59.5716 28.6486 59.6891 28.7458C59.8262 28.8236 59.8752 29.018 59.836 29.3292C59.7968 29.6209 59.6304 30.0098 59.3367 30.496C58.8471 31.3127 58.3086 32.11 57.7212 32.8879C57.1337 33.6657 56.5267 34.4144 55.9001 35.1339C55.293 35.834 54.686 36.4951 54.079 37.1174C53.4719 37.7203 52.9041 38.255 52.3753 38.7218C51.7683 39.2663 51.2788 39.6357 50.9067 39.8302C50.5347 40.0052 50.2703 40.0344 50.1137 39.9177C49.957 39.7816 49.8885 39.5093 49.908 39.101C49.9472 38.6926 50.0647 38.1675 50.2605 37.5258C50.3976 37.0396 50.5738 36.466 50.7892 35.8048C51.0046 35.1436 51.22 34.4825 51.4354 33.8213C51.6508 33.1407 51.8564 32.5086 52.0523 31.9253C52.2481 31.3224 52.3949 30.846 52.4928 30.496C51.9837 30.6126 51.455 30.9529 50.9067 31.5169C50.3584 32.0614 49.8101 32.7323 49.2618 33.5296C48.7136 34.3269 48.1751 35.1922 47.6464 36.1257C47.1372 37.0591 46.6673 37.9536 46.2365 38.8093C45.414 41.1623 44.6014 43.5056 43.7985 45.8391C42.9761 48.1921 42.2222 50.3604 41.5368 52.3439C40.8515 54.3274 40.264 56.0193 39.7745 57.4194C39.2849 58.839 38.9521 59.7919 38.7758 60.278C38.4821 61.0753 38.1884 61.6976 37.8946 62.1449C37.5813 62.5921 37.317 62.8644 37.1016 62.9616C36.8862 63.0589 36.7491 62.9713 36.6904 62.6991C36.6316 62.4463 36.7099 61.9893 36.9253 61.3281C37.0428 60.9975 37.2582 60.3169 37.5715 59.2863C37.8653 58.275 38.2275 57.0305 38.6583 55.5526C39.0891 54.0746 39.5689 52.4314 40.0976 50.6229C40.6263 48.8144 41.1746 46.9476 41.7425 45.0224C42.2907 43.1166 42.8488 41.2206 43.4167 39.3343C43.965 37.4286 44.4839 35.659 44.9734 34.0255C45.4434 32.3725 45.8742 30.914 46.2658 29.65C46.6379 28.3666 46.9316 27.3943 47.147 26.7331C47.5778 25.4107 48.0674 24.4481 48.6157 23.8453C49.1639 23.2425 49.6731 22.8827 50.143 22.766C50.613 22.6494 50.9753 22.7271 51.2298 22.9994C51.504 23.2522 51.5725 23.5828 51.4354 23.9912Z" fill="white"/>
<path d="M57.7616 24.5745C57.9182 24.5551 58.2805 24.4773 58.8483 24.3412C59.4162 24.2051 60.0918 24.0495 60.8751 23.8745C61.6779 23.68 62.5297 23.4758 63.4305 23.2619C64.3508 23.048 65.2222 22.8438 66.0446 22.6494C66.8867 22.4549 67.6308 22.2799 68.277 22.1243C68.9232 21.9687 69.3833 21.8618 69.6575 21.8034C70.0687 21.7257 70.333 21.8034 70.4505 22.0368C70.5876 22.2507 70.5974 22.523 70.4799 22.8535C70.382 23.1647 70.1764 23.4758 69.8631 23.787C69.5694 24.0787 69.1973 24.2634 68.7469 24.3412C68.4728 24.3995 68.0909 24.4676 67.6014 24.5454C67.1118 24.6037 66.5538 24.6718 65.9271 24.7496C65.3005 24.8079 64.6348 24.8857 63.9298 24.9829C63.2249 25.0607 62.5395 25.1385 61.8737 25.2163C61.7171 25.6635 61.4919 26.3831 61.1982 27.3748C60.9044 28.3471 60.5715 29.4653 60.1995 30.7293C59.8274 31.9739 59.4554 33.2865 59.0833 34.6672C58.7309 36.0479 58.4078 37.3702 58.114 38.6342C57.8203 39.8788 57.6049 40.997 57.4678 41.9887C57.3308 42.9805 57.3014 43.7097 57.3797 44.1765C58.0847 43.7097 58.8092 42.9416 59.5533 41.8721C60.2974 40.8025 61.0415 39.5871 61.7856 38.2259C62.5493 36.8646 63.3032 35.4353 64.0473 33.938C64.811 32.4406 65.5551 31.0405 66.2796 29.7375C66.5342 29.2708 66.779 28.9597 67.0139 28.8041C67.2685 28.6291 67.4643 28.5902 67.6014 28.6874C67.7385 28.7652 67.7874 28.9694 67.7483 29.3C67.7287 29.6111 67.5818 30.0098 67.3077 30.496C66.9552 31.1571 66.5538 31.9253 66.1034 32.8003C65.653 33.656 65.1732 34.5602 64.6641 35.5131C64.155 36.466 63.6263 37.4286 63.078 38.4009C62.5297 39.3732 61.9814 40.2872 61.4331 41.1428C60.9044 42.0179 60.3757 42.7958 59.847 43.4764C59.3379 44.157 58.8581 44.6821 58.4078 45.0515C57.8595 45.4988 57.3699 45.6544 56.9391 45.5182C56.5083 45.3821 56.2146 44.9738 56.0579 44.2931C55.9209 43.7292 55.8719 43.0194 55.9111 42.1638C55.9502 41.3081 56.0482 40.3552 56.2048 39.3051C56.3419 38.255 56.5377 37.1466 56.7923 35.9798C57.0272 34.7936 57.3014 33.5976 57.6147 32.392C57.9084 31.1863 58.2119 30.0001 58.5252 28.8333C58.8581 27.6471 59.1812 26.5289 59.4945 25.4788L57.8203 25.7122C57.5266 25.7705 57.3014 25.751 57.1447 25.6538C56.9881 25.5566 56.9098 25.4399 56.9098 25.3038C56.9098 25.1482 56.9783 25.0024 57.1154 24.8662C57.2524 24.7301 57.4678 24.6329 57.7616 24.5745Z" fill="white"/>
<path d="M71.6052 32.4211C71.5661 32.7517 71.478 33.1795 71.3409 33.7046C71.2234 34.2102 71.0863 34.7158 70.9297 35.2214C70.7926 35.7076 70.6653 36.1548 70.5478 36.5632C70.4303 36.9716 70.3716 37.2341 70.3716 37.3508C70.5087 37.3508 70.7339 37.1272 71.0472 36.6799C71.3605 36.2132 71.7325 35.6201 72.1633 34.9005C72.5941 34.181 73.0739 33.374 73.6026 32.4795C74.1313 31.5655 74.6796 30.6515 75.2475 29.7375C75.5412 29.2708 75.8055 28.9597 76.0405 28.8041C76.2951 28.6486 76.4811 28.6194 76.5986 28.7166C76.7357 28.7944 76.7846 28.9889 76.7455 29.3C76.7259 29.6111 76.5692 30.0098 76.2755 30.496C75.7076 31.4683 75.1495 32.4114 74.6013 33.3254C74.0725 34.2199 73.5732 35.0464 73.1032 35.8048C72.6333 36.5438 72.2025 37.1758 71.8109 37.7008C71.4388 38.2259 71.1255 38.6051 70.8709 38.8384C70.401 39.2468 69.9702 39.3732 69.5785 39.2176C69.2065 39.0426 68.9911 38.6245 68.9323 37.9633C68.8932 37.73 68.8736 37.4383 68.8736 37.0883C68.8932 36.7188 68.9225 36.3493 68.9617 35.9798C68.668 36.641 68.3253 37.2924 67.9337 37.9342C67.542 38.5565 67.121 39.1107 66.6706 39.5968C66.2203 40.0636 65.7601 40.4136 65.2901 40.6469C64.8202 40.8997 64.3502 40.9581 63.8802 40.822C63.4494 40.6858 63.1851 40.2969 63.0872 39.6552C62.9697 39.0135 62.9893 38.2356 63.1459 37.3216C63.3026 36.3882 63.5767 35.377 63.9684 34.288C64.36 33.1796 64.8398 32.1003 65.4076 31.0502C65.9755 30.0001 66.6217 29.0472 67.3462 28.1916C68.0903 27.3165 68.8736 26.6359 69.696 26.1497C70.2247 25.8386 70.7045 25.6635 71.1353 25.6246C71.5661 25.5663 71.9381 25.5955 72.2514 25.7122C72.5648 25.8094 72.8095 25.965 72.9858 26.1789C73.162 26.3928 73.2697 26.6164 73.3089 26.8498C73.3676 27.0637 73.3382 27.2679 73.2207 27.4623C73.1228 27.6373 72.9466 27.754 72.692 27.8124C71.713 28.0263 70.8024 28.4638 69.9604 29.125C69.1184 29.7862 68.3547 30.5543 67.6693 31.4294C67.0035 32.3045 66.4259 33.2282 65.9363 34.2005C65.4272 35.1534 65.0258 36.0479 64.7321 36.8841C64.4187 37.7008 64.2229 38.3912 64.1446 38.9551C64.0663 39.4996 64.1054 39.801 64.2621 39.8594C64.4579 39.9177 64.7125 39.8205 65.0258 39.5677C65.3195 39.3149 65.6426 38.9648 65.9951 38.5176C66.328 38.0509 66.6706 37.5161 67.0231 36.9132C67.3756 36.3104 67.6889 35.6978 67.963 35.0756C68.2568 34.4533 68.5015 33.8407 68.6974 33.2379C68.8932 32.635 69.0107 32.11 69.0498 31.6627C69.0694 31.3127 69.2261 31.0696 69.5198 30.9335C69.8135 30.7779 70.117 30.739 70.4303 30.8168C70.7632 30.8752 71.057 31.0405 71.3115 31.3127C71.5661 31.5849 71.664 31.9544 71.6052 32.4211Z" fill="white"/>
<path d="M128.078 47.706C128.587 47.9393 128.881 48.2116 128.959 48.5227C129.057 48.8339 128.998 49.0964 128.783 49.3103C128.567 49.5242 128.234 49.6603 127.784 49.7187C127.334 49.777 126.834 49.67 126.286 49.3978C122.781 47.6671 119.462 46.1114 116.329 44.7307C113.196 43.35 110.219 42.1346 107.399 41.0845C104.599 40.0344 101.926 39.1301 99.3808 38.3717C96.8547 37.6133 94.4461 36.9813 92.1551 36.4757C91.8614 37.5064 91.5578 38.5759 91.2445 39.6843C90.9312 40.7928 90.5983 41.9985 90.2459 43.3014C90.1284 43.7292 89.9913 44.0112 89.8346 44.1473C89.678 44.3029 89.5311 44.3417 89.3941 44.264C89.2766 44.1862 89.1884 44.0014 89.1297 43.7097C89.0905 43.418 89.1199 43.0388 89.2178 42.5721C89.4528 41.5026 89.678 40.4428 89.8934 39.3927C90.1284 38.3426 90.3731 37.2633 90.6277 36.1548C89.9815 36.0187 89.3451 35.902 88.7185 35.8048C88.0919 35.6881 87.4653 35.5812 86.8386 35.4839C86.8191 35.4839 86.7211 35.445 86.5449 35.3673C86.3687 35.2895 86.2022 35.1728 86.0456 35.0172C85.9085 34.8617 85.8302 34.6769 85.8106 34.463C85.8106 34.2491 85.9868 33.9963 86.3393 33.7046C86.9855 33.1795 87.8079 32.5864 88.8066 31.9253C89.8053 31.2641 90.941 30.5446 92.2138 29.7667C92.6055 28.2499 93.0558 26.6553 93.565 24.9829C94.0741 23.3105 94.6518 21.5215 95.298 19.6157C95.9637 17.71 96.7176 15.6681 97.5596 13.4901C98.4017 11.3121 99.3612 8.95913 100.438 6.43111C100.712 5.76993 101.065 5.43935 101.496 5.43935C101.926 5.43935 102.308 5.64353 102.641 6.0519C102.974 6.44083 103.199 6.97561 103.317 7.65623C103.454 8.3174 103.356 8.99802 103.023 9.69809C102.024 11.8177 101.124 13.7527 100.321 15.5028C99.5178 17.2336 98.7933 18.8379 98.1471 20.3158C97.5009 21.7743 96.9135 23.1452 96.3847 24.4287C95.856 25.6927 95.3763 26.9081 94.9455 28.0749C96.4924 27.1415 98.1373 26.1594 99.8801 25.1288C101.623 24.0787 103.415 22.9994 105.255 21.8909C107.096 20.7631 108.946 19.606 110.807 18.4198C112.687 17.2141 114.517 15.9987 116.299 14.7736C118.101 13.5485 119.824 12.3136 121.469 11.0691C123.114 9.8245 124.631 8.57993 126.022 7.33536C126.453 6.96588 126.864 6.85893 127.255 7.0145C127.647 7.15062 127.941 7.43259 128.137 7.86041C128.332 8.26879 128.391 8.74522 128.313 9.28972C128.234 9.81477 127.951 10.262 127.461 10.6315C124.994 12.4984 122.331 14.3069 119.472 16.057C116.632 17.8072 113.744 19.499 110.807 21.1325C107.869 22.766 104.971 24.3509 102.112 25.8872C99.2535 27.4234 96.5903 28.9208 94.123 30.3793C93.8489 31.1571 93.5845 31.9253 93.33 32.6837C93.0754 33.4421 92.8307 34.2296 92.5957 35.0464C96.982 36.0187 102.103 37.5355 107.958 39.5968C113.832 41.6387 120.539 44.3417 128.078 47.706ZM91.6557 31.8378C91.0291 32.2267 90.4123 32.6156 89.8053 33.0045C89.2178 33.3935 88.6499 33.7824 88.1017 34.1713C89.0612 34.3269 90.0207 34.5019 90.9802 34.6964L91.6557 31.8378Z" fill="white"/>
<path d="M124.347 27.4623C124.837 27.6568 125.17 28.0068 125.346 28.5124C125.542 28.9986 125.62 29.582 125.581 30.2626C125.542 30.9238 125.405 31.653 125.17 32.4503C124.935 33.2282 124.641 33.9963 124.289 34.7547C123.936 35.5131 123.525 36.2423 123.055 36.9424C122.605 37.623 122.135 38.2064 121.645 38.6926C121.175 39.1593 120.695 39.4899 120.206 39.6843C119.716 39.8788 119.266 39.8788 118.855 39.6843C118.307 39.4121 117.964 38.8871 117.827 38.1092C117.69 37.3313 117.719 36.4465 117.915 35.4548C118.091 34.463 118.404 33.4421 118.855 32.392C119.286 31.3224 119.795 30.3793 120.382 29.5625C120.989 28.7458 121.635 28.1332 122.321 27.7248C123.006 27.297 123.682 27.2095 124.347 27.4623ZM119.384 38.4009C119.638 38.5176 119.951 38.4301 120.323 38.1384C120.676 37.8467 121.019 37.448 121.351 36.9424C121.704 36.4174 122.027 35.8242 122.321 35.1631C122.615 34.5019 122.83 33.8699 122.967 33.2671C123.104 32.6642 123.143 32.1392 123.084 31.6919C123.026 31.2252 122.82 30.9238 122.468 30.7876C122.174 30.6904 121.861 30.7974 121.528 31.1085C121.195 31.4002 120.872 31.8086 120.558 32.3336C120.245 32.8587 119.961 33.4518 119.707 34.113C119.452 34.7547 119.256 35.377 119.119 35.9798C118.982 36.5827 118.933 37.1077 118.972 37.555C118.992 38.0022 119.129 38.2842 119.384 38.4009Z" fill="white"/>
<path d="M127.2 24.5745C127.357 24.5551 127.719 24.4773 128.287 24.3412C128.855 24.2051 129.531 24.0495 130.314 23.8745C131.117 23.68 131.968 23.4758 132.869 23.2619C133.79 23.048 134.661 22.8438 135.483 22.6494C136.325 22.4549 137.07 22.2799 137.716 22.1243C138.362 21.9687 138.822 21.8618 139.096 21.8034C139.507 21.7257 139.772 21.8034 139.889 22.0368C140.026 22.2507 140.036 22.523 139.919 22.8535C139.821 23.1647 139.615 23.4758 139.302 23.787C139.008 24.0787 138.636 24.2634 138.186 24.3412C137.912 24.3995 137.53 24.4676 137.04 24.5454C136.551 24.6037 135.993 24.6718 135.366 24.7496C134.739 24.8079 134.074 24.8857 133.369 24.9829C132.664 25.0607 131.978 25.1385 131.312 25.2163C131.156 25.6635 130.931 26.3831 130.637 27.3748C130.343 28.3471 130.01 29.4653 129.638 30.7293C129.266 31.9739 128.894 33.2865 128.522 34.6672C128.17 36.0479 127.846 37.3702 127.553 38.6342C127.259 39.8788 127.044 40.997 126.907 41.9887C126.77 42.9805 126.74 43.7097 126.818 44.1765C127.523 43.7097 128.248 42.9416 128.992 41.8721C129.736 40.8025 130.48 39.5871 131.224 38.2259C131.988 36.8646 132.742 35.4353 133.486 33.938C134.25 32.4406 134.994 31.0405 135.718 29.7375C135.973 29.2708 136.218 28.9597 136.453 28.8041C136.707 28.6291 136.903 28.5902 137.04 28.6874C137.177 28.7652 137.226 28.9694 137.187 29.3C137.167 29.6111 137.021 30.0098 136.746 30.496C136.394 31.1571 135.993 31.9253 135.542 32.8003C135.092 33.656 134.612 34.5602 134.103 35.5131C133.594 36.466 133.065 37.4286 132.517 38.4009C131.968 39.3732 131.42 40.2872 130.872 41.1428C130.343 42.0179 129.814 42.7958 129.286 43.4764C128.777 44.157 128.297 44.6821 127.846 45.0515C127.298 45.4988 126.809 45.6544 126.378 45.5182C125.947 45.3821 125.653 44.9738 125.497 44.2931C125.36 43.7292 125.311 43.0194 125.35 42.1638C125.389 41.3081 125.487 40.3552 125.644 39.3051C125.781 38.255 125.976 37.1466 126.231 35.9798C126.466 34.7936 126.74 33.5976 127.053 32.392C127.347 31.1863 127.651 30.0001 127.964 28.8333C128.297 27.6471 128.62 26.5289 128.933 25.4788L127.259 25.7122C126.965 25.7705 126.74 25.751 126.583 25.6538C126.427 25.5566 126.348 25.4399 126.348 25.3038C126.348 25.1482 126.417 25.0024 126.554 24.8662C126.691 24.7301 126.907 24.6329 127.2 24.5745Z" fill="white"/>
</svg>
