<svg width="112" height="110" viewBox="0 0 112 110" fill="none" xmlns="http://www.w3.org/2000/svg">
<path d="M72.0735 10.6793L70.6878 10.288L72.1656 5.08601L68.5792 9.69248L67.5309 9.39644L66.9001 3.59899L65.4223 8.80095L64.0367 8.40963L66.4257 0L67.7511 0.374306L68.672 7.3957L73.1371 1.89535L74.4625 2.26965L72.0735 10.6793Z" fill="white"/>
<path fill-rule="evenodd" clip-rule="evenodd" d="M44.9082 0.33907L45.5287 3.95755L47.3803 3.64189C47.7589 3.57735 48.1165 3.58817 48.4531 3.67435C48.7883 3.75232 49.0868 3.88724 49.3483 4.0791C49.6085 4.26276 49.8223 4.49657 49.9895 4.78052C50.165 5.06307 50.2816 5.37255 50.3393 5.70896C50.397 6.04537 50.3902 6.37589 50.3188 6.70053C50.2556 7.02376 50.1327 7.31919 49.9499 7.58681C49.7671 7.85444 49.5306 8.08055 49.2404 8.26514C48.9502 8.44974 48.6158 8.5743 48.2372 8.63884L44.9661 9.19651L43.4886 0.581078L44.9082 0.33907ZM45.744 5.21294L46.1703 7.69911L48.022 7.38345C48.3594 7.32592 48.6064 7.16135 48.7631 6.88973C48.9266 6.60851 48.9788 6.29558 48.9198 5.95097C48.8607 5.60635 48.7078 5.3326 48.4613 5.12972C48.2216 4.91724 47.933 4.83976 47.5956 4.89728L45.744 5.21294Z" fill="white"/>
<path d="M36.057 4.17917L38.1202 3.52011L40.4013 10.6191L41.7728 10.181L39.4918 3.08201L41.5669 2.41914L41.1734 1.19437L35.6635 2.9544L36.057 4.17917Z" fill="white"/>
<path fill-rule="evenodd" clip-rule="evenodd" d="M37.0478 11.9223L36.2259 11.0834L33.2581 12.5075L33.403 13.6713L32.0376 14.3265L30.9667 5.1403L31.8808 4.70169L38.4132 11.2671L37.0478 11.9223ZM32.4667 7.06726L33.0937 11.1591L35.2716 10.114L32.4667 7.06726Z" fill="white"/>
<path d="M18.0916 13.6612L23.3513 20.6536L30.9554 14.9673L25.6957 7.97494L24.5436 8.83649L29.0293 14.8L26.9555 16.3508L22.4697 10.3873L21.3176 11.2488L25.8033 17.2124L23.7295 18.7631L19.2437 12.7996L18.0916 13.6612Z" fill="white"/>
<path d="M19.8184 24.823L18.7736 26.0021L17.2983 22.3865L11.1842 21.366L12.287 20.1214L16.6624 20.86L15.0812 16.968L16.126 15.7889L19.8184 24.823Z" fill="white"/>
<path d="M12.5322 33.5485L12.2189 34.06L13.3197 34.7304L13.8354 33.8885C14.0965 33.4623 14.1757 33.0375 14.0731 32.6141C13.9705 32.1907 13.7054 31.8489 13.2779 31.5885L8.20139 28.4971L9.84633 25.8117L16.2268 29.6972L16.9774 28.4718L9.49618 23.9159L6.34991 29.0522L12.3883 32.7294C12.5308 32.8161 12.6144 32.9353 12.639 33.0868C12.6679 33.2312 12.6323 33.3851 12.5322 33.5485Z" fill="white"/>
<path d="M10.4524 34.064C10.8168 34.3053 11.1291 34.6028 11.3893 34.9566C11.6495 35.3103 11.8463 35.7027 11.9798 36.1338C12.1133 36.565 12.173 37.0266 12.1592 37.5186C12.1375 38.0078 12.0337 38.5021 11.8479 39.0016C11.5981 39.6728 11.2571 40.2303 10.8249 40.6742C10.3926 41.1181 9.91108 41.4549 9.38032 41.6848C8.84464 41.904 8.28074 42.0195 7.68863 42.0313C7.09159 42.0324 6.50344 41.9259 5.9242 41.7117C5.36844 41.5061 4.86709 41.2141 4.42015 40.8358C3.97612 40.4496 3.62128 40.0031 3.35564 39.4965C3.09291 38.982 2.93849 38.4277 2.8924 37.8336C2.84138 37.2287 2.93637 36.6024 3.17738 35.9546C3.40386 35.3459 3.69031 34.8392 4.03674 34.4346C4.37824 34.0193 4.75623 33.6974 5.17071 33.469C5.57736 33.2376 6.01267 33.0967 6.47665 33.0464C6.93569 32.9853 7.39992 33.0061 7.86932 33.1086L7.34231 34.5252C7.0431 34.4678 6.74603 34.4645 6.45111 34.5152C6.15909 34.5581 5.88778 34.6531 5.63717 34.8001C5.38164 34.9365 5.15073 35.1263 4.94444 35.3696C4.74105 35.6051 4.57693 35.8907 4.45208 36.2263C4.27786 36.6946 4.20717 37.1479 4.24 37.5862C4.27573 38.0167 4.39196 38.4104 4.58866 38.7672C4.77754 39.1212 5.03516 39.434 5.36152 39.7057C5.68006 39.9744 6.03893 40.1826 6.43814 40.3302C6.86083 40.4866 7.28472 40.5679 7.70981 40.5742C8.1378 40.5727 8.54452 40.4967 8.92996 40.3463C9.31048 40.1851 9.65407 39.9437 9.96073 39.6221C10.2703 39.2927 10.518 38.8782 10.7038 38.3787C10.7909 38.1446 10.8389 37.896 10.8477 37.6329C10.8516 37.3591 10.8209 37.0947 10.7555 36.8397C10.6823 36.5817 10.5754 36.3424 10.4349 36.1218C10.2894 35.8904 10.1123 35.6962 9.90365 35.5391L10.4524 34.064Z" fill="white"/>
<path d="M4.47523 50.6757C4.63998 50.7715 4.82178 50.8317 5.02063 50.8563C5.21948 50.8809 5.41052 50.8668 5.59376 50.8139C5.77699 50.7611 5.94311 50.6767 6.09211 50.561C6.24111 50.4452 6.36367 50.3051 6.45981 50.1409C6.55594 49.9766 6.61633 49.7953 6.64098 49.5971C6.66563 49.3988 6.65145 49.2083 6.59844 49.0256C6.54647 48.8347 6.46241 48.6649 6.34628 48.5163C6.23014 48.3678 6.0897 48.2456 5.92495 48.1497C5.76019 48.0539 5.57839 47.9937 5.37954 47.9691C5.18069 47.9445 4.98965 47.9587 4.80641 48.0115C4.61489 48.0633 4.44463 48.1471 4.29564 48.2629C4.14664 48.3787 4.02356 48.5229 3.9264 48.6954C3.83026 48.8597 3.76987 49.0409 3.74523 49.2392C3.72058 49.4375 3.73476 49.6279 3.78776 49.8106C3.84076 49.9933 3.92533 50.159 4.04147 50.3075C4.1576 50.4561 4.30219 50.5788 4.47523 50.6757Z" fill="white"/>
<path d="M1.55146 60.1871L1.71011 62.3414L0.423677 62.4356L0 56.6824L1.28643 56.5882L1.446 58.755L8.90229 58.2091L9.00775 59.6412L1.55146 60.1871Z" fill="white"/>
<path d="M107.513 59.674C107.349 59.5775 107.167 59.5166 106.968 59.4913C106.77 59.4659 106.579 59.4793 106.395 59.5315C106.212 59.5836 106.045 59.6673 105.896 59.7825C105.746 59.8977 105.623 60.0373 105.527 60.2012C105.43 60.3651 105.369 60.5461 105.343 60.7443C105.318 60.9425 105.331 61.133 105.384 61.3159C105.435 61.5071 105.518 61.6771 105.634 61.8261C105.749 61.9751 105.889 62.0979 106.054 62.1944C106.218 62.2908 106.4 62.3518 106.598 62.3771C106.797 62.4024 106.988 62.389 107.172 62.3369C107.363 62.2858 107.534 62.2026 107.683 62.0874C107.833 61.9722 107.957 61.8285 108.054 61.6563C108.151 61.4925 108.212 61.3114 108.238 61.1133C108.263 60.9151 108.25 60.7245 108.197 60.5416C108.145 60.3588 108.061 60.1928 107.946 60.0438C107.83 59.8948 107.686 59.7715 107.513 59.674Z" fill="white"/>
<path d="M100.518 75.4128C100.777 75.7675 101.088 76.0662 101.452 76.3088L102.006 74.8358C101.798 74.6779 101.622 74.483 101.477 74.2512C101.338 74.03 101.232 73.7903 101.159 73.5321C101.095 73.2768 101.065 73.0123 101.07 72.7385C101.08 72.4754 101.129 72.227 101.217 71.9932C101.404 71.4944 101.654 71.0809 101.965 70.7526C102.272 70.4321 102.617 70.192 102.998 70.0323C103.384 69.8833 103.791 69.8089 104.219 69.809C104.644 69.8168 105.068 69.8997 105.49 70.0577C105.888 70.2068 106.246 70.4163 106.564 70.6863C106.889 70.9591 107.146 71.2729 107.333 71.6276C107.529 71.9852 107.643 72.3793 107.678 72.8099C107.709 73.2484 107.636 73.7014 107.46 74.169C107.334 74.5041 107.169 74.7891 106.965 75.0238C106.758 75.2664 106.526 75.4554 106.27 75.5907C106.019 75.7368 105.747 75.8308 105.455 75.8726C105.16 75.9223 104.863 75.9178 104.564 75.8593L104.031 77.2739C104.5 77.3782 104.965 77.4007 105.424 77.3414C105.888 77.2927 106.324 77.1535 106.731 76.9236C107.147 76.6967 107.526 76.3763 107.869 75.9623C108.217 75.559 108.505 75.0534 108.734 74.4455C108.977 73.7986 109.075 73.1726 109.026 72.5676C108.982 71.9733 108.83 71.4184 108.569 70.903C108.305 70.3953 107.952 69.9476 107.51 69.5597C107.064 69.1797 106.564 68.8858 106.009 68.6782C105.43 68.4618 104.843 68.353 104.246 68.3519C103.654 68.3616 103.089 68.475 102.553 68.6921C102.021 68.92 101.538 69.2551 101.104 69.6973C100.67 70.1395 100.327 70.6958 100.075 71.366C99.8873 71.8648 99.7817 72.3588 99.7582 72.8478C99.7424 73.3399 99.8005 73.8017 99.9323 74.2333C100.064 74.6649 100.259 75.0581 100.518 75.4128Z" fill="white"/>
<path d="M99.5691 76.5016L99.252 77.0108C99.1507 77.1734 99.114 77.3271 99.1419 77.4717C99.1653 77.6234 99.248 77.7432 99.3899 77.831L105.401 81.5524L102.217 86.6654L94.7695 82.0548L95.5292 80.8349L101.881 84.7671L103.545 82.0939L98.4919 78.9653C98.0663 78.7018 97.8038 78.358 97.7043 77.9339C97.6048 77.5098 97.6872 77.0856 97.9514 76.6612L98.4733 75.8232L99.5691 76.5016Z" fill="white"/>
<path d="M92.9164 84.5234L91.8631 85.6949L95.4895 94.7555L96.5428 93.584L94.9901 89.6806L99.36 90.4509L100.472 89.2144L94.3653 88.1495L92.9164 84.5234Z" fill="white"/>
<path d="M88.334 89.7511L93.5681 96.7626L92.4128 97.6199L87.9488 91.6401L85.8693 93.1833L90.3333 99.1631L89.178 100.021L84.714 94.0407L82.6345 95.5839L87.0984 101.564L85.9432 102.421L80.7091 95.4096L88.334 89.7511Z" fill="white"/>
<path fill-rule="evenodd" clip-rule="evenodd" d="M75.4117 99.228L74.593 98.3861L73.2251 99.0362L79.7331 105.626L80.6487 105.191L79.6122 96.0004L78.2443 96.6506L78.3848 97.8149L75.4117 99.228ZM78.5442 99.1639L79.156 103.258L76.3624 100.201L78.5442 99.1639Z" fill="white"/>
<path d="M73.3264 106.807L75.3946 106.163L75.7788 107.391L70.2558 109.109L69.8715 107.882L71.9516 107.234L69.7244 100.118L71.0992 99.6907L73.3264 106.807Z" fill="white"/>
<path fill-rule="evenodd" clip-rule="evenodd" d="M66.0019 106.269L66.6085 109.89L68.029 109.653L66.5847 101.032L63.3114 101.577C62.9326 101.64 62.5977 101.764 62.3068 101.947C62.0159 102.131 61.7786 102.356 61.5947 102.623C61.4109 102.89 61.2868 103.185 61.2224 103.508C61.1498 103.832 61.1417 104.163 61.1981 104.499C61.2545 104.836 61.3699 105.146 61.5443 105.429C61.7105 105.714 61.9233 105.948 62.1828 106.133C62.4436 106.326 62.7415 106.462 63.0765 106.541C63.4128 106.628 63.7703 106.641 64.1491 106.578L66.0019 106.269ZM65.3747 102.525L65.7915 105.013L63.9387 105.321C63.601 105.378 63.3128 105.299 63.0739 105.086C62.8281 104.882 62.6763 104.607 62.6186 104.263C62.5608 103.918 62.6142 103.605 62.7788 103.324C62.9366 103.053 63.1842 102.89 63.5219 102.834L65.3747 102.525Z" fill="white"/>
<path d="M55.8886 106.072C55.8801 106.272 55.8346 106.457 55.7521 106.629C55.6692 106.809 55.5582 106.962 55.4191 107.09C55.28 107.217 55.1212 107.314 54.9429 107.382C54.7645 107.449 54.5752 107.479 54.375 107.47C54.1749 107.462 53.9888 107.416 53.8168 107.334C53.6365 107.251 53.4824 107.141 53.3546 107.002C53.2268 106.863 53.1293 106.701 53.062 106.515C52.9944 106.337 52.9648 106.148 52.9733 105.949C52.9818 105.749 53.0273 105.564 53.1099 105.392C53.1924 105.221 53.3032 105.071 53.4423 104.944C53.5814 104.816 53.7444 104.719 53.9311 104.652C54.1094 104.585 54.2987 104.555 54.4989 104.564C54.6991 104.572 54.8852 104.617 55.0571 104.7C55.2291 104.782 55.379 104.892 55.5068 105.031C55.6346 105.17 55.7323 105.328 55.7999 105.506C55.8675 105.684 55.8971 105.873 55.8886 106.072Z" fill="white"/>
<path d="M40.7706 99.6801L39.388 99.2784L36.9352 107.67L38.2577 108.054L42.7644 102.588L43.632 109.616L44.9545 110L47.4073 101.609L46.0247 101.207L44.5075 106.398L43.9207 100.595L42.8746 100.292L39.2534 104.871L40.7706 99.6801Z" fill="white"/>
<path fill-rule="evenodd" clip-rule="evenodd" d="M33.074 96.2634L32.9076 97.4243L35.8483 98.903L36.6857 98.0795L38.0387 98.7598L31.3852 105.203L30.4795 104.748L31.721 95.583L33.074 96.2634ZM32.0039 102.843L34.8761 99.8546L32.7181 98.7694L32.0039 102.843Z" fill="white"/>
<path fill-rule="evenodd" clip-rule="evenodd" d="M23.4054 100.438L25.9541 102.272L31.0849 95.1853L29.9172 94.3448L28.3779 96.4709L26.9969 95.477C26.6179 95.2042 26.2296 95.0222 25.8321 94.9312C25.423 94.8421 25.0271 94.8343 24.6443 94.9079C24.2548 94.9766 23.8949 95.118 23.5649 95.3322C23.228 95.5415 22.9374 95.8148 22.6931 96.1523C22.4537 96.4831 22.2874 96.8408 22.1942 97.2254C22.0894 97.612 22.0656 98.0004 22.1229 98.3906C22.1733 98.776 22.3079 99.1449 22.5264 99.4973C22.7333 99.8515 23.0263 100.165 23.4054 100.438ZM25.613 96.2365C25.8293 96.2792 26.0389 96.3736 26.242 96.5198L27.6229 97.5137L25.5413 100.389L24.1603 99.3951C23.9573 99.2489 23.8038 99.0769 23.7 98.879C23.5845 98.6829 23.5181 98.476 23.5007 98.2582C23.4785 98.0471 23.5004 97.8319 23.5666 97.6126C23.621 97.3951 23.7191 97.1885 23.8608 96.9928C24.0025 96.797 24.1708 96.6358 24.3655 96.509C24.5486 96.3841 24.7465 96.2956 24.9593 96.2434C25.1673 96.198 25.3852 96.1957 25.613 96.2365Z" fill="white"/>
<path d="M18.5115 94.769L20.0601 96.2797L19.158 97.1989L15.0225 93.1646L15.9246 92.2453L17.4821 93.7647L22.7108 88.4366L23.7402 89.4408L18.5115 94.769Z" fill="white"/>
<path fill-rule="evenodd" clip-rule="evenodd" d="M16.8975 83.4055L17.5496 82.4294L16.6228 81.2341L11.5408 88.9705L12.1612 89.7706L20.9503 86.8156L20.0235 85.6203L18.9119 86.0036L16.8975 83.4055ZM17.6233 86.4444L13.7396 87.907L16.1451 84.5378L17.6233 86.4444Z" fill="white"/>
<path d="M8.9671 78.487L8.91014 78.3619C8.80313 78.1269 8.63461 77.9381 8.40458 77.7954C8.16349 77.6486 7.84949 77.5531 7.46257 77.5088L6.14015 77.3533C5.66756 77.3022 5.24612 77.1821 4.87584 76.9932C4.49451 76.8002 4.20892 76.4952 4.01906 76.0784L3.80677 75.6122L4.98125 75.0805L5.08481 75.3079C5.16075 75.4746 5.28195 75.63 5.44842 75.7741C5.60383 75.914 5.83975 75.9991 6.1562 76.0296L7.26203 76.1323C7.62339 76.1607 7.96572 76.2479 8.28903 76.3941C8.60474 76.5437 8.87482 76.7643 9.09927 77.0558L11.7318 71.7225L12.4929 73.3938L10.0504 77.9965L13.8132 76.2929L14.4087 77.6003L6.4268 81.2141L5.83135 79.9067L8.9671 78.487Z" fill="white"/>
<path fill-rule="evenodd" clip-rule="evenodd" d="M10.5312 68.5133C10.6384 67.9039 10.6081 67.2598 10.4401 66.5809C10.2721 65.902 9.9996 65.3217 9.62245 64.84C9.2352 64.3523 8.78889 63.9733 8.28351 63.7032C7.77614 63.4251 7.22996 63.2507 6.64499 63.1803C6.05191 63.1118 5.46761 63.1483 4.8921 63.2899C4.31658 63.4314 3.78633 63.669 3.30133 64.0026C2.80823 64.3383 2.40197 64.7469 2.08255 65.2284C1.76113 65.7018 1.54681 66.2432 1.43961 66.8526C1.3223 67.4559 1.34762 68.097 1.51558 68.7759C1.68354 69.4548 1.96115 70.0381 2.3484 70.5259C2.72554 71.0076 3.1678 71.3875 3.67518 71.6657C4.18055 71.9358 4.72978 72.1051 5.32286 72.1735C5.90784 72.244 6.48808 72.2085 7.06359 72.0669C7.63911 71.9254 8.17342 71.6868 8.66652 71.3512C9.15152 71.0175 9.55473 70.614 9.87614 70.1405C10.1956 69.659 10.4139 69.1166 10.5312 68.5133ZM8.62033 65.7424C8.88664 66.0542 9.07578 66.4363 9.18776 66.8889C9.29973 67.3415 9.31155 67.7716 9.2232 68.1791C9.13285 68.5786 8.96971 68.9445 8.73378 69.2769C8.49585 69.6012 8.20339 69.8789 7.85641 70.11C7.49932 70.335 7.11408 70.4984 6.70068 70.6C6.28728 70.7017 5.8741 70.7347 5.46113 70.6991C5.03806 70.6574 4.64557 70.5482 4.28367 70.3714C3.91977 70.1866 3.60466 69.9383 3.33836 69.6265C3.07005 69.3067 2.87991 68.9205 2.76793 68.4679C2.65596 68.0153 2.64515 67.5893 2.7355 67.1898C2.82385 66.7822 2.98698 66.4163 3.22492 66.092C3.46085 65.7596 3.75736 65.4809 4.11444 65.2559C4.46142 65.0248 4.84162 64.8584 5.25501 64.7568C5.66841 64.6551 6.08665 64.6251 6.50972 64.6668C6.92269 64.7024 7.31112 64.8126 7.67502 64.9975C8.03692 65.1743 8.35203 65.4226 8.62033 65.7424Z" fill="white"/>
<path d="M55.9956 3.50933C55.9138 3.68111 55.869 3.86683 55.8612 4.06646C55.8535 4.26609 55.8838 4.45469 55.9521 4.63226C56.0204 4.80983 56.1188 4.96773 56.2471 5.10596C56.3754 5.24419 56.5257 5.3541 56.698 5.43571C56.8703 5.51732 57.0566 5.56198 57.2568 5.56968C57.457 5.57739 57.6462 5.54719 57.8243 5.47907C58.0107 5.41127 58.1732 5.3134 58.3119 5.18545C58.4505 5.0575 58.5608 4.90763 58.6426 4.73584C58.7245 4.56405 58.7692 4.37834 58.777 4.17871C58.7847 3.97908 58.7544 3.79048 58.6861 3.61291C58.6181 3.42702 58.5199 3.26496 58.3916 3.12673C58.2633 2.98851 58.1088 2.87843 57.9282 2.7965C57.7559 2.71489 57.5696 2.67024 57.3694 2.66253C57.1692 2.65482 56.98 2.68502 56.8019 2.75314C56.6238 2.82126 56.4655 2.91929 56.3268 3.04724C56.1882 3.17519 56.0778 3.32922 55.9956 3.50933Z" fill="white"/>
<path fill-rule="evenodd" clip-rule="evenodd" d="M78.6805 12.5007L78.5184 13.6622L79.8739 14.3376L81.0814 5.16823L80.174 4.71614L73.5445 11.1841L74.9 11.8595L75.7343 11.0328L78.6805 12.5007ZM76.703 10.0777L79.5641 7.07836L78.865 11.1549L76.703 10.0777Z" fill="white"/>
<path fill-rule="evenodd" clip-rule="evenodd" d="M85.7126 7.63983L88.268 9.46489C88.6481 9.73634 88.9422 10.0488 89.1504 10.4023C89.3702 10.7538 89.5061 11.1222 89.558 11.5074C89.6167 11.8975 89.5943 12.286 89.4909 12.6729C89.3992 13.0579 89.2342 13.4162 88.996 13.7478C88.7529 14.0862 88.4633 14.3606 88.1272 14.5711C87.7979 14.7865 87.4386 14.9292 87.0493 14.9993C86.6668 15.0743 86.2709 15.068 85.8614 14.9803C85.4636 14.8908 85.0747 14.7103 84.6946 14.4388L83.31 13.4499L81.7786 15.5816L80.6078 14.7454L85.7126 7.63983ZM85.4457 13.3933C85.6494 13.5387 85.8594 13.6324 86.0757 13.6743C86.3037 13.7142 86.5216 13.7111 86.7294 13.665C86.942 13.612 87.1396 13.5228 87.3223 13.3972C87.5165 13.2697 87.6842 13.1079 87.8252 12.9116C87.9662 12.7154 88.0635 12.5084 88.1171 12.2908C88.1825 12.0712 88.2036 11.8559 88.1806 11.6449C88.1625 11.4272 88.0953 11.2205 87.9791 11.0249C87.8745 10.8273 87.7205 10.6558 87.5168 10.5104L86.1322 9.52155L84.0611 12.4044L85.4457 13.3933Z" fill="white"/>
<path d="M91.7663 13.7025L93.3204 15.2076L88.1112 20.5546L89.1443 21.5551L94.3535 16.2081L95.9165 17.7219L96.8152 16.7993L92.6651 12.78L91.7663 13.7025Z" fill="white"/>
<path fill-rule="evenodd" clip-rule="evenodd" d="M94.339 27.5494L94.9874 26.571L92.9635 23.9802L91.8534 24.3675L90.9222 23.1756L99.7005 20.1886L100.324 20.9865L95.2701 28.7413L94.339 27.5494ZM98.1289 22.058L94.2505 23.5347L95.7357 25.4359L98.1289 22.058Z" fill="white"/>
<path d="M102.885 31.3518L102.827 31.2271L105.952 29.7842L105.347 28.4812L97.3924 32.1541L97.9976 33.4571L101.748 31.7256L99.3395 36.3464L100.113 38.012L102.706 32.6593C102.932 32.9491 103.204 33.1676 103.521 33.3149C103.845 33.4587 104.188 33.5434 104.55 33.5691L105.656 33.6636C105.973 33.6917 106.21 33.7751 106.366 33.9139C106.534 34.0567 106.656 34.2112 106.733 34.3774L106.838 34.604L108.009 34.0635L107.793 33.599C107.6 33.1835 107.312 32.8807 106.929 32.6905C106.558 32.5043 106.135 32.3874 105.663 32.3398L104.339 32.1941C103.952 32.1527 103.637 32.0595 103.395 31.9145C103.164 31.7735 102.994 31.5859 102.885 31.3518Z" fill="white"/>
<path fill-rule="evenodd" clip-rule="evenodd" d="M101.509 43.3322C101.338 42.654 101.306 42.01 101.41 41.4002C101.525 40.7964 101.742 40.2532 102.059 39.7705C102.379 39.2958 102.781 38.8907 103.264 38.5553C103.756 38.2178 104.29 37.9772 104.865 37.8335C105.44 37.6897 106.02 37.652 106.605 37.7202C107.198 37.7865 107.748 37.9537 108.254 38.2218C108.763 38.4981 109.207 38.8763 109.586 39.3566C109.975 39.8429 110.255 40.4252 110.425 41.1034C110.596 41.7817 110.623 42.4226 110.508 43.0264C110.404 43.6362 110.191 44.1784 109.872 44.653C109.554 45.1358 109.149 45.5459 108.658 45.8834C108.174 46.2189 107.644 46.4585 107.07 46.6022C106.495 46.7459 105.91 46.7847 105.317 46.7184C104.732 46.6502 104.185 46.4779 103.677 46.2017C103.17 45.9335 102.722 45.5563 102.333 45.07C101.954 44.5897 101.68 44.0105 101.509 43.3322ZM102.76 43.0195C102.874 43.4716 103.064 43.8531 103.332 44.1638C103.601 44.4826 103.918 44.7297 104.28 44.9051C104.645 45.0886 105.034 45.1974 105.447 45.2314C105.87 45.2715 106.288 45.2399 106.701 45.1367C107.114 45.0335 107.494 44.8656 107.84 44.6332C108.196 44.4069 108.491 44.127 108.726 43.7938C108.963 43.4686 109.124 43.102 109.211 42.6941C109.3 42.2943 109.288 41.8683 109.174 41.4162C109.06 40.964 108.869 40.5785 108.599 40.2597C108.332 39.949 108.016 39.7019 107.651 39.5184C107.288 39.343 106.895 39.2352 106.472 39.1951C106.059 39.1611 105.646 39.1957 105.233 39.2989C104.82 39.4022 104.435 39.567 104.079 39.7933C103.733 40.0258 103.442 40.3046 103.205 40.6298C102.97 40.963 102.809 41.3296 102.72 41.7294C102.633 42.1373 102.646 42.5673 102.76 43.0195Z" fill="white"/>
<path d="M110.268 47.5838L110.435 49.7375L102.981 50.312L103.092 51.7437L110.546 51.1692L110.714 53.3354L112 53.2362L111.554 47.4847L110.268 47.5838Z" fill="white"/>
</svg>
