<svg width="48" height="48" viewBox="0 0 48 48" fill="none" xmlns="http://www.w3.org/2000/svg">
<circle cx="24" cy="24" r="23" stroke="white" stroke-opacity="0.3" stroke-width="2"/>
<path fill-rule="evenodd" clip-rule="evenodd" d="M29.6849 26.111C29.0659 26.7467 28.3223 27.2073 27.4955 27.528C26.7139 27.8296 25.8576 27.9828 25.0104 28.0856C25.1379 28.2236 25.198 28.293 25.2783 28.373C26.4294 29.5301 27.5851 30.6816 28.7315 31.8425C29.1223 32.2374 29.2045 32.7284 28.9893 33.19C28.7537 33.6915 28.2271 34.0226 27.7107 33.9865C27.3837 33.9636 27.1278 33.8009 26.9015 33.5735C26.0331 32.698 25.1481 31.8387 24.2972 30.949C24.0497 30.6901 23.9314 30.7396 23.7125 30.9632C22.8386 31.8625 21.9508 32.7503 21.0584 33.6315C20.6565 34.0274 20.1798 34.0987 19.7143 33.8723C19.22 33.6315 18.9059 33.1272 18.9299 32.62C18.9466 32.2764 19.1156 32.0138 19.3512 31.7797C20.4893 30.6406 21.6256 29.5006 22.7619 28.3597C22.8367 28.2854 22.9069 28.2045 23.0159 28.0865C21.4667 27.9257 20.0699 27.5432 18.8745 26.6059C18.7258 26.4907 18.5724 26.3775 18.4376 26.249C17.9138 25.7447 17.8611 25.168 18.275 24.5732C18.6297 24.0679 19.2246 23.93 19.8427 24.2202C19.9628 24.2792 20.0764 24.3487 20.1854 24.4257C22.4145 25.9588 25.476 26.0006 27.7135 24.4943C27.9352 24.3239 28.1726 24.1859 28.447 24.1146C28.9809 23.9766 29.4789 24.1755 29.7653 24.6399C30.0923 25.1756 30.0886 25.6961 29.6849 26.111ZM23.9601 24.1231C21.196 24.1136 18.9299 21.8203 18.9466 19.0502C18.9623 16.2487 21.2302 13.9915 24.021 14C26.8174 14.0067 29.0622 16.2962 29.0484 19.1263C29.0336 21.8907 26.7518 24.1327 23.9601 24.1231ZM24.0007 16.5836C22.6178 16.5836 21.5129 17.697 21.524 19.0863C21.5341 20.4566 22.6381 21.5443 24.0136 21.5376C25.3846 21.5338 26.4765 20.4309 26.4719 19.0559C26.4673 17.6808 25.3726 16.5855 24.0007 16.5836Z" fill="white"/>
</svg>
