<svg width="12" height="20" viewBox="0 0 12 20" fill="none" xmlns="http://www.w3.org/2000/svg">
<path fill-rule="evenodd" clip-rule="evenodd" d="M11.6849 12.111C11.0659 12.7467 10.3223 13.2073 9.49546 13.528C8.71392 13.8296 7.85756 13.9828 7.01043 14.0856C7.13791 14.2236 7.19796 14.293 7.27833 14.373C8.42939 15.5301 9.58507 16.6816 10.7315 17.8425C11.1223 18.2374 11.2045 18.7284 10.9893 19.19C10.7537 19.6915 10.2271 20.0226 9.71071 19.9865C9.38368 19.9636 9.12779 19.8009 8.90146 19.5735C8.03308 18.698 7.14807 17.8387 6.29725 16.949C6.04967 16.6901 5.93142 16.7396 5.71248 16.9632C4.83856 17.8625 3.95078 18.7503 3.05839 19.6315C2.65653 20.0274 2.17985 20.0987 1.71425 19.8723C1.22001 19.6315 0.905921 19.1272 0.92994 18.62C0.946568 18.2764 1.11562 18.0138 1.35119 17.7797C2.48932 16.6406 3.6256 15.5006 4.76188 14.3597C4.83671 14.2854 4.90692 14.2045 5.01593 14.0865C3.46671 13.9257 2.06992 13.5432 0.874511 12.6059C0.725779 12.4907 0.572427 12.3775 0.437551 12.249C-0.0862462 11.7447 -0.138903 11.168 0.274962 10.5732C0.629703 10.0679 1.22463 9.92996 1.84266 10.2202C1.96275 10.2792 2.07638 10.3487 2.18539 10.4257C4.41453 11.9588 7.47602 12.0006 9.71348 10.4943C9.93519 10.3239 10.1726 10.1859 10.447 10.1146C10.9809 9.97659 11.4789 10.1755 11.7653 10.6399C12.0923 11.1756 12.0886 11.6961 11.6849 12.111ZM5.96006 10.1231C3.19603 10.1136 0.92994 7.82027 0.946568 5.05016C0.962273 2.24865 3.23022 -0.0085401 6.02103 2.42912e-05C8.81739 0.00668549 11.0622 2.29623 11.0484 5.12629C11.0336 7.89068 8.7518 10.1327 5.96006 10.1231ZM6.00071 2.58362C4.61777 2.58362 3.5129 3.69699 3.52399 5.08632C3.53415 6.45662 4.63809 7.5443 6.01364 7.53764C7.38457 7.53383 8.47651 6.43093 8.47189 5.05587C8.46727 3.68081 7.37256 2.58552 6.00071 2.58362Z" fill="white"/>
</svg>
