<svg width="114" height="114" viewBox="0 0 114 114" fill="none" xmlns="http://www.w3.org/2000/svg">
<path d="M73.0735 12.6793L71.6878 12.288L73.1656 7.08601L69.5792 11.6925L68.5309 11.3964L67.9001 5.59899L66.4223 10.801L65.0367 10.4096L67.4257 2L68.7511 2.37431L69.672 9.3957L74.1371 3.89535L75.4625 4.26965L73.0735 12.6793Z" fill="white"/>
<path fill-rule="evenodd" clip-rule="evenodd" d="M45.9082 2.33907L46.5287 5.95755L48.3803 5.64189C48.7589 5.57735 49.1165 5.58817 49.4531 5.67435C49.7883 5.75232 50.0868 5.88724 50.3483 6.0791C50.6085 6.26276 50.8223 6.49657 50.9895 6.78052C51.165 7.06307 51.2816 7.37255 51.3393 7.70896C51.397 8.04537 51.3902 8.37589 51.3188 8.70053C51.2556 9.02376 51.1327 9.31919 50.9499 9.58681C50.7671 9.85444 50.5306 10.0805 50.2404 10.2651C49.9502 10.4497 49.6158 10.5743 49.2372 10.6388L45.9661 11.1965L44.4886 2.58108L45.9082 2.33907ZM46.744 7.21294L47.1703 9.69911L49.022 9.38345C49.3594 9.32592 49.6064 9.16135 49.7631 8.88973C49.9266 8.60851 49.9788 8.29558 49.9198 7.95097C49.8607 7.60635 49.7078 7.3326 49.4613 7.12972C49.2216 6.91724 48.933 6.83976 48.5956 6.89728L46.744 7.21294Z" fill="white"/>
<path d="M37.057 6.17917L39.1202 5.52011L41.4013 12.6191L42.7728 12.181L40.4918 5.08201L42.5669 4.41914L42.1734 3.19437L36.6635 4.9544L37.057 6.17917Z" fill="white"/>
<path fill-rule="evenodd" clip-rule="evenodd" d="M38.0478 13.9223L37.2259 13.0834L34.2581 14.5075L34.403 15.6713L33.0376 16.3265L31.9667 7.1403L32.8808 6.70169L39.4132 13.2671L38.0478 13.9223ZM33.4667 9.06726L34.0937 13.1591L36.2716 12.114L33.4667 9.06726Z" fill="white"/>
<path d="M19.0916 15.6612L24.3513 22.6536L31.9554 16.9673L26.6957 9.97494L25.5436 10.8365L30.0293 16.8L27.9555 18.3508L23.4697 12.3873L22.3176 13.2488L26.8033 19.2124L24.7295 20.7631L20.2437 14.7996L19.0916 15.6612Z" fill="white"/>
<path d="M20.8184 26.823L19.7736 28.0021L18.2983 24.3865L12.1842 23.366L13.287 22.1214L17.6624 22.86L16.0812 18.968L17.126 17.7889L20.8184 26.823Z" fill="white"/>
<path d="M13.5322 35.5485L13.2189 36.06L14.3197 36.7304L14.8354 35.8885C15.0965 35.4623 15.1757 35.0375 15.0731 34.6141C14.9705 34.1907 14.7054 33.8489 14.2779 33.5885L9.20139 30.4971L10.8463 27.8117L17.2268 31.6972L17.9774 30.4718L10.4962 25.9159L7.34991 31.0522L13.3883 34.7294C13.5308 34.8161 13.6144 34.9353 13.639 35.0868C13.6679 35.2312 13.6323 35.3851 13.5322 35.5485Z" fill="white"/>
<path d="M11.4524 36.064C11.8168 36.3053 12.1291 36.6028 12.3893 36.9566C12.6495 37.3103 12.8463 37.7027 12.9798 38.1338C13.1133 38.565 13.173 39.0266 13.1592 39.5186C13.1375 40.0078 13.0337 40.5021 12.8479 41.0016C12.5981 41.6728 12.2571 42.2303 11.8249 42.6742C11.3926 43.1181 10.9111 43.4549 10.3803 43.6848C9.84464 43.904 9.28074 44.0195 8.68863 44.0313C8.09159 44.0324 7.50344 43.9259 6.9242 43.7117C6.36844 43.5061 5.86709 43.2141 5.42015 42.8358C4.97612 42.4496 4.62128 42.0031 4.35564 41.4965C4.09291 40.982 3.93849 40.4277 3.8924 39.8336C3.84138 39.2287 3.93637 38.6024 4.17738 37.9546C4.40386 37.3459 4.69031 36.8392 5.03674 36.4346C5.37824 36.0193 5.75623 35.6974 6.17071 35.469C6.57736 35.2376 7.01267 35.0967 7.47665 35.0464C7.93569 34.9853 8.39992 35.0061 8.86932 35.1086L8.34231 36.5252C8.0431 36.4678 7.74603 36.4645 7.45111 36.5152C7.15909 36.5581 6.88778 36.6531 6.63717 36.8001C6.38164 36.9365 6.15073 37.1263 5.94444 37.3696C5.74105 37.6051 5.57693 37.8907 5.45208 38.2263C5.27786 38.6946 5.20717 39.1479 5.24 39.5862C5.27573 40.0167 5.39196 40.4104 5.58866 40.7672C5.77754 41.1212 6.03516 41.434 6.36152 41.7057C6.68006 41.9744 7.03893 42.1826 7.43814 42.3302C7.86083 42.4866 8.28472 42.5679 8.70981 42.5742C9.1378 42.5727 9.54452 42.4967 9.92996 42.3463C10.3105 42.1851 10.6541 41.9437 10.9607 41.6221C11.2703 41.2927 11.518 40.8782 11.7038 40.3787C11.7909 40.1446 11.8389 39.896 11.8477 39.6329C11.8516 39.3591 11.8209 39.0947 11.7555 38.8397C11.6823 38.5817 11.5754 38.3424 11.4349 38.1218C11.2894 37.8904 11.1123 37.6962 10.9037 37.5391L11.4524 36.064Z" fill="white"/>
<path d="M5.47523 52.6757C5.63998 52.7715 5.82178 52.8317 6.02063 52.8563C6.21948 52.8809 6.41052 52.8668 6.59376 52.8139C6.77699 52.7611 6.94311 52.6767 7.09211 52.561C7.24111 52.4452 7.36367 52.3051 7.45981 52.1409C7.55594 51.9766 7.61633 51.7953 7.64098 51.5971C7.66563 51.3988 7.65145 51.2083 7.59844 51.0256C7.54647 50.8347 7.46241 50.6649 7.34628 50.5163C7.23014 50.3678 7.0897 50.2456 6.92495 50.1497C6.76019 50.0539 6.57839 49.9937 6.37954 49.9691C6.18069 49.9445 5.98965 49.9587 5.80641 50.0115C5.61489 50.0633 5.44463 50.1471 5.29564 50.2629C5.14664 50.3787 5.02356 50.5229 4.9264 50.6954C4.83026 50.8597 4.76987 51.0409 4.74523 51.2392C4.72058 51.4375 4.73476 51.6279 4.78776 51.8106C4.84076 51.9933 4.92533 52.159 5.04147 52.3075C5.1576 52.4561 5.30219 52.5788 5.47523 52.6757Z" fill="white"/>
<path d="M2.55146 62.1871L2.71011 64.3414L1.42368 64.4356L1 58.6824L2.28643 58.5882L2.446 60.755L9.90229 60.2091L10.0078 61.6412L2.55146 62.1871Z" fill="white"/>
<path d="M108.513 61.674C108.349 61.5775 108.167 61.5166 107.968 61.4913C107.77 61.4659 107.579 61.4793 107.395 61.5315C107.212 61.5836 107.045 61.6673 106.896 61.7825C106.746 61.8977 106.623 62.0373 106.527 62.2012C106.43 62.3651 106.369 62.5461 106.343 62.7443C106.318 62.9425 106.331 63.133 106.384 63.3159C106.435 63.5071 106.518 63.6771 106.634 63.8261C106.749 63.9751 106.889 64.0979 107.054 64.1944C107.218 64.2908 107.4 64.3518 107.598 64.3771C107.797 64.4024 107.988 64.389 108.172 64.3369C108.363 64.2858 108.534 64.2026 108.683 64.0874C108.833 63.9722 108.957 63.8285 109.054 63.6563C109.151 63.4925 109.212 63.3114 109.238 63.1133C109.263 62.9151 109.25 62.7245 109.197 62.5416C109.145 62.3588 109.061 62.1928 108.946 62.0438C108.83 61.8948 108.686 61.7715 108.513 61.674Z" fill="white"/>
<path d="M101.518 77.4128C101.777 77.7675 102.088 78.0662 102.452 78.3088L103.006 76.8358C102.798 76.6779 102.622 76.483 102.477 76.2512C102.338 76.03 102.232 75.7903 102.159 75.5321C102.095 75.2768 102.065 75.0123 102.07 74.7385C102.08 74.4754 102.129 74.227 102.217 73.9932C102.404 73.4944 102.654 73.0809 102.965 72.7526C103.272 72.4321 103.617 72.192 103.998 72.0323C104.384 71.8833 104.791 71.8089 105.219 71.809C105.644 71.8168 106.068 71.8997 106.49 72.0577C106.888 72.2068 107.246 72.4163 107.564 72.6863C107.889 72.9591 108.146 73.2729 108.333 73.6276C108.529 73.9852 108.643 74.3793 108.678 74.8099C108.709 75.2484 108.636 75.7014 108.46 76.169C108.334 76.5041 108.169 76.7891 107.965 77.0238C107.758 77.2664 107.526 77.4554 107.27 77.5907C107.019 77.7368 106.747 77.8308 106.455 77.8726C106.16 77.9223 105.863 77.9178 105.564 77.8593L105.031 79.2739C105.5 79.3782 105.965 79.4007 106.424 79.3414C106.888 79.2927 107.324 79.1535 107.731 78.9236C108.147 78.6967 108.526 78.3763 108.869 77.9623C109.217 77.559 109.505 77.0534 109.734 76.4455C109.977 75.7986 110.075 75.1726 110.026 74.5676C109.982 73.9733 109.83 73.4184 109.569 72.903C109.305 72.3953 108.952 71.9476 108.51 71.5597C108.064 71.1797 107.564 70.8858 107.009 70.6782C106.43 70.4618 105.843 70.353 105.246 70.3519C104.654 70.3616 104.089 70.475 103.553 70.6921C103.021 70.92 102.538 71.2551 102.104 71.6973C101.67 72.1395 101.327 72.6958 101.075 73.366C100.887 73.8648 100.782 74.3588 100.758 74.8478C100.742 75.3399 100.8 75.8017 100.932 76.2333C101.064 76.6649 101.259 77.0581 101.518 77.4128Z" fill="white"/>
<path d="M100.569 78.5016L100.252 79.0108C100.151 79.1734 100.114 79.3271 100.142 79.4717C100.165 79.6234 100.248 79.7432 100.39 79.831L106.401 83.5524L103.217 88.6654L95.7695 84.0548L96.5292 82.8349L102.881 86.7671L104.545 84.0939L99.4919 80.9653C99.0663 80.7018 98.8038 80.358 98.7043 79.9339C98.6048 79.5098 98.6872 79.0856 98.9514 78.6612L99.4733 77.8232L100.569 78.5016Z" fill="white"/>
<path d="M93.9164 86.5234L92.8631 87.6949L96.4895 96.7555L97.5428 95.584L95.9901 91.6806L100.36 92.4509L101.472 91.2144L95.3653 90.1495L93.9164 86.5234Z" fill="white"/>
<path d="M89.334 91.7511L94.5681 98.7626L93.4128 99.6199L88.9488 93.6401L86.8693 95.1833L91.3333 101.163L90.178 102.021L85.714 96.0407L83.6345 97.5839L88.0984 103.564L86.9432 104.421L81.7091 97.4096L89.334 91.7511Z" fill="white"/>
<path fill-rule="evenodd" clip-rule="evenodd" d="M76.4117 101.228L75.593 100.386L74.2251 101.036L80.7331 107.626L81.6487 107.191L80.6122 98.0004L79.2443 98.6506L79.3848 99.8149L76.4117 101.228ZM79.5442 101.164L80.156 105.258L77.3624 102.201L79.5442 101.164Z" fill="white"/>
<path d="M74.3264 108.807L76.3946 108.163L76.7788 109.391L71.2558 111.109L70.8715 109.882L72.9516 109.234L70.7244 102.118L72.0992 101.691L74.3264 108.807Z" fill="white"/>
<path fill-rule="evenodd" clip-rule="evenodd" d="M67.0019 108.269L67.6085 111.89L69.029 111.653L67.5847 103.032L64.3114 103.577C63.9326 103.64 63.5977 103.764 63.3068 103.947C63.0159 104.131 62.7786 104.356 62.5947 104.623C62.4109 104.89 62.2868 105.185 62.2224 105.508C62.1498 105.832 62.1417 106.163 62.1981 106.499C62.2545 106.836 62.3699 107.146 62.5443 107.429C62.7105 107.714 62.9233 107.948 63.1828 108.133C63.4436 108.326 63.7415 108.462 64.0765 108.541C64.4128 108.628 64.7703 108.641 65.1491 108.578L67.0019 108.269ZM66.3747 104.525L66.7915 107.013L64.9387 107.321C64.601 107.378 64.3128 107.299 64.0739 107.086C63.8281 106.882 63.6763 106.607 63.6186 106.263C63.5608 105.918 63.6142 105.605 63.7788 105.324C63.9366 105.053 64.1842 104.89 64.5219 104.834L66.3747 104.525Z" fill="white"/>
<path d="M56.8886 108.072C56.8801 108.272 56.8346 108.457 56.7521 108.629C56.6692 108.809 56.5582 108.962 56.4191 109.09C56.28 109.217 56.1212 109.314 55.9429 109.382C55.7645 109.449 55.5752 109.479 55.375 109.47C55.1749 109.462 54.9888 109.416 54.8168 109.334C54.6365 109.251 54.4824 109.141 54.3546 109.002C54.2268 108.863 54.1293 108.701 54.062 108.515C53.9944 108.337 53.9648 108.148 53.9733 107.949C53.9818 107.749 54.0273 107.564 54.1099 107.392C54.1924 107.221 54.3032 107.071 54.4423 106.944C54.5814 106.816 54.7444 106.719 54.9311 106.652C55.1094 106.585 55.2987 106.555 55.4989 106.564C55.6991 106.572 55.8852 106.617 56.0571 106.7C56.2291 106.782 56.379 106.892 56.5068 107.031C56.6346 107.17 56.7323 107.328 56.7999 107.506C56.8675 107.684 56.8971 107.873 56.8886 108.072Z" fill="white"/>
<path d="M41.7706 101.68L40.388 101.278L37.9352 109.67L39.2577 110.054L43.7644 104.588L44.632 111.616L45.9545 112L48.4073 103.609L47.0247 103.207L45.5075 108.398L44.9207 102.595L43.8746 102.292L40.2534 106.871L41.7706 101.68Z" fill="white"/>
<path fill-rule="evenodd" clip-rule="evenodd" d="M34.074 98.2634L33.9076 99.4243L36.8483 100.903L37.6857 100.079L39.0387 100.76L32.3852 107.203L31.4795 106.748L32.721 97.583L34.074 98.2634ZM33.0039 104.843L35.8761 101.855L33.7181 100.769L33.0039 104.843Z" fill="white"/>
<path fill-rule="evenodd" clip-rule="evenodd" d="M24.4054 102.438L26.9541 104.272L32.0849 97.1853L30.9172 96.3448L29.3779 98.4709L27.9969 97.477C27.6179 97.2042 27.2296 97.0222 26.8321 96.9312C26.423 96.8421 26.0271 96.8343 25.6443 96.9079C25.2548 96.9766 24.8949 97.118 24.5649 97.3322C24.228 97.5415 23.9374 97.8148 23.6931 98.1523C23.4537 98.4831 23.2874 98.8408 23.1942 99.2254C23.0894 99.612 23.0656 100 23.1229 100.391C23.1733 100.776 23.3079 101.145 23.5264 101.497C23.7333 101.852 24.0263 102.165 24.4054 102.438ZM26.613 98.2365C26.8293 98.2792 27.0389 98.3736 27.242 98.5198L28.6229 99.5137L26.5413 102.389L25.1603 101.395C24.9573 101.249 24.8038 101.077 24.7 100.879C24.5845 100.683 24.5181 100.476 24.5007 100.258C24.4785 100.047 24.5004 99.8319 24.5666 99.6126C24.621 99.3951 24.7191 99.1885 24.8608 98.9928C25.0025 98.797 25.1708 98.6358 25.3655 98.509C25.5486 98.3841 25.7465 98.2956 25.9593 98.2434C26.1673 98.198 26.3852 98.1957 26.613 98.2365Z" fill="white"/>
<path d="M19.5115 96.769L21.0601 98.2797L20.158 99.1989L16.0225 95.1646L16.9246 94.2453L18.4821 95.7647L23.7108 90.4366L24.7402 91.4408L19.5115 96.769Z" fill="white"/>
<path fill-rule="evenodd" clip-rule="evenodd" d="M17.8975 85.4055L18.5496 84.4294L17.6228 83.2341L12.5408 90.9705L13.1612 91.7706L21.9503 88.8156L21.0235 87.6203L19.9119 88.0036L17.8975 85.4055ZM18.6233 88.4444L14.7396 89.907L17.1451 86.5378L18.6233 88.4444Z" fill="white"/>
<path d="M9.9671 80.487L9.91014 80.3619C9.80313 80.1269 9.63461 79.9381 9.40458 79.7954C9.16349 79.6486 8.84949 79.5531 8.46257 79.5088L7.14015 79.3533C6.66756 79.3022 6.24612 79.1821 5.87584 78.9932C5.49451 78.8002 5.20892 78.4952 5.01906 78.0784L4.80677 77.6122L5.98125 77.0805L6.08481 77.3079C6.16075 77.4746 6.28195 77.63 6.44842 77.7741C6.60383 77.914 6.83975 77.9991 7.1562 78.0296L8.26203 78.1323C8.62339 78.1607 8.96572 78.2479 9.28903 78.3941C9.60474 78.5437 9.87482 78.7643 10.0993 79.0558L12.7318 73.7225L13.4929 75.3938L11.0504 79.9965L14.8132 78.2929L15.4087 79.6003L7.4268 83.2141L6.83135 81.9067L9.9671 80.487Z" fill="white"/>
<path fill-rule="evenodd" clip-rule="evenodd" d="M11.5312 70.5133C11.6384 69.9039 11.6081 69.2598 11.4401 68.5809C11.2721 67.902 10.9996 67.3217 10.6225 66.84C10.2352 66.3523 9.78889 65.9733 9.28351 65.7032C8.77614 65.4251 8.22996 65.2507 7.64499 65.1803C7.05191 65.1118 6.46761 65.1483 5.8921 65.2899C5.31658 65.4314 4.78633 65.669 4.30133 66.0026C3.80823 66.3383 3.40197 66.7469 3.08255 67.2284C2.76113 67.7018 2.54681 68.2432 2.43961 68.8526C2.3223 69.4559 2.34762 70.097 2.51558 70.7759C2.68354 71.4548 2.96115 72.0381 3.3484 72.5259C3.72554 73.0076 4.1678 73.3875 4.67518 73.6657C5.18055 73.9358 5.72978 74.1051 6.32286 74.1735C6.90784 74.244 7.48808 74.2085 8.06359 74.0669C8.63911 73.9254 9.17342 73.6868 9.66652 73.3512C10.1515 73.0175 10.5547 72.614 10.8761 72.1405C11.1956 71.659 11.4139 71.1166 11.5312 70.5133ZM9.62033 67.7424C9.88664 68.0542 10.0758 68.4363 10.1878 68.8889C10.2997 69.3415 10.3115 69.7716 10.2232 70.1791C10.1328 70.5786 9.96971 70.9445 9.73378 71.2769C9.49585 71.6012 9.20339 71.8789 8.85641 72.11C8.49932 72.335 8.11408 72.4984 7.70068 72.6C7.28728 72.7017 6.8741 72.7347 6.46113 72.6991C6.03806 72.6574 5.64557 72.5482 5.28367 72.3714C4.91977 72.1866 4.60466 71.9383 4.33836 71.6265C4.07005 71.3067 3.87991 70.9205 3.76793 70.4679C3.65596 70.0153 3.64515 69.5893 3.7355 69.1898C3.82385 68.7822 3.98698 68.4163 4.22492 68.092C4.46085 67.7596 4.75736 67.4809 5.11444 67.2559C5.46142 67.0248 5.84162 66.8584 6.25501 66.7568C6.66841 66.6551 7.08665 66.6251 7.50972 66.6668C7.92269 66.7024 8.31112 66.8126 8.67502 66.9975C9.03692 67.1743 9.35203 67.4226 9.62033 67.7424Z" fill="white"/>
<path d="M56.9956 5.50933C56.9138 5.68111 56.869 5.86683 56.8612 6.06646C56.8535 6.26609 56.8838 6.45469 56.9521 6.63226C57.0204 6.80983 57.1188 6.96773 57.2471 7.10596C57.3754 7.24419 57.5257 7.3541 57.698 7.43571C57.8703 7.51732 58.0566 7.56198 58.2568 7.56968C58.457 7.57739 58.6462 7.54719 58.8243 7.47907C59.0107 7.41127 59.1732 7.3134 59.3119 7.18545C59.4505 7.0575 59.5608 6.90763 59.6426 6.73584C59.7245 6.56405 59.7692 6.37834 59.777 6.17871C59.7847 5.97908 59.7544 5.79048 59.6861 5.61291C59.6181 5.42702 59.5199 5.26496 59.3916 5.12673C59.2633 4.98851 59.1088 4.87843 58.9282 4.7965C58.7559 4.71489 58.5696 4.67024 58.3694 4.66253C58.1692 4.65482 57.98 4.68502 57.8019 4.75314C57.6238 4.82126 57.4655 4.91929 57.3268 5.04724C57.1882 5.17519 57.0778 5.32922 56.9956 5.50933Z" fill="white"/>
<path fill-rule="evenodd" clip-rule="evenodd" d="M79.6805 14.5007L79.5184 15.6622L80.8739 16.3376L82.0814 7.16823L81.174 6.71614L74.5445 13.1841L75.9 13.8595L76.7343 13.0328L79.6805 14.5007ZM77.703 12.0777L80.5641 9.07836L79.865 13.1549L77.703 12.0777Z" fill="white"/>
<path fill-rule="evenodd" clip-rule="evenodd" d="M86.7126 9.63983L89.268 11.4649C89.6481 11.7363 89.9422 12.0488 90.1504 12.4023C90.3702 12.7538 90.5061 13.1222 90.558 13.5074C90.6167 13.8975 90.5943 14.286 90.4909 14.6729C90.3992 15.0579 90.2342 15.4162 89.996 15.7478C89.7529 16.0862 89.4633 16.3606 89.1272 16.5711C88.7979 16.7865 88.4386 16.9292 88.0493 16.9993C87.6668 17.0743 87.2709 17.068 86.8614 16.9803C86.4636 16.8908 86.0747 16.7103 85.6946 16.4388L84.31 15.4499L82.7786 17.5816L81.6078 16.7454L86.7126 9.63983ZM86.4457 15.3933C86.6494 15.5387 86.8594 15.6324 87.0757 15.6743C87.3037 15.7142 87.5216 15.7111 87.7294 15.665C87.942 15.612 88.1396 15.5228 88.3223 15.3972C88.5165 15.2697 88.6842 15.1079 88.8252 14.9116C88.9662 14.7154 89.0635 14.5084 89.1171 14.2908C89.1825 14.0712 89.2036 13.8559 89.1806 13.6449C89.1625 13.4272 89.0953 13.2205 88.9791 13.0249C88.8745 12.8273 88.7205 12.6558 88.5168 12.5104L87.1322 11.5216L85.0611 14.4044L86.4457 15.3933Z" fill="white"/>
<path d="M92.7663 15.7025L94.3204 17.2076L89.1112 22.5546L90.1443 23.5551L95.3535 18.2081L96.9165 19.7219L97.8152 18.7993L93.6651 14.78L92.7663 15.7025Z" fill="white"/>
<path fill-rule="evenodd" clip-rule="evenodd" d="M95.339 29.5494L95.9874 28.571L93.9635 25.9802L92.8534 26.3675L91.9222 25.1756L100.7 22.1886L101.324 22.9865L96.2701 30.7413L95.339 29.5494ZM99.1289 24.058L95.2505 25.5347L96.7357 27.4359L99.1289 24.058Z" fill="white"/>
<path d="M103.885 33.3518L103.827 33.2271L106.952 31.7842L106.347 30.4812L98.3924 34.1541L98.9976 35.4571L102.748 33.7256L100.339 38.3464L101.113 40.012L103.706 34.6593C103.932 34.9491 104.204 35.1676 104.521 35.3149C104.845 35.4587 105.188 35.5434 105.55 35.5691L106.656 35.6636C106.973 35.6917 107.21 35.7751 107.366 35.9139C107.534 36.0567 107.656 36.2112 107.733 36.3774L107.838 36.604L109.009 36.0635L108.793 35.599C108.6 35.1835 108.312 34.8807 107.929 34.6905C107.558 34.5043 107.135 34.3874 106.663 34.3398L105.339 34.1941C104.952 34.1527 104.637 34.0595 104.395 33.9145C104.164 33.7735 103.994 33.5859 103.885 33.3518Z" fill="white"/>
<path fill-rule="evenodd" clip-rule="evenodd" d="M102.509 45.3322C102.338 44.654 102.306 44.01 102.41 43.4002C102.525 42.7964 102.742 42.2532 103.059 41.7705C103.379 41.2958 103.781 40.8907 104.264 40.5553C104.756 40.2178 105.29 39.9772 105.865 39.8335C106.44 39.6897 107.02 39.652 107.605 39.7202C108.198 39.7865 108.748 39.9537 109.254 40.2218C109.763 40.4981 110.207 40.8763 110.586 41.3566C110.975 41.8429 111.255 42.4252 111.425 43.1034C111.596 43.7817 111.623 44.4226 111.508 45.0264C111.404 45.6362 111.191 46.1784 110.872 46.653C110.554 47.1358 110.149 47.5459 109.658 47.8834C109.174 48.2189 108.644 48.4585 108.07 48.6022C107.495 48.7459 106.91 48.7847 106.317 48.7184C105.732 48.6502 105.185 48.4779 104.677 48.2017C104.17 47.9335 103.722 47.5563 103.333 47.07C102.954 46.5897 102.68 46.0105 102.509 45.3322ZM103.76 45.0195C103.874 45.4716 104.064 45.8531 104.332 46.1638C104.601 46.4826 104.918 46.7297 105.28 46.9051C105.645 47.0886 106.034 47.1974 106.447 47.2314C106.87 47.2715 107.288 47.2399 107.701 47.1367C108.114 47.0335 108.494 46.8656 108.84 46.6332C109.196 46.4069 109.491 46.127 109.726 45.7938C109.963 45.4686 110.124 45.102 110.211 44.6941C110.3 44.2943 110.288 43.8683 110.174 43.4162C110.06 42.964 109.869 42.5785 109.599 42.2597C109.332 41.949 109.016 41.7019 108.651 41.5184C108.288 41.343 107.895 41.2352 107.472 41.1951C107.059 41.1611 106.646 41.1957 106.233 41.2989C105.82 41.4022 105.435 41.567 105.079 41.7933C104.733 42.0258 104.442 42.3046 104.205 42.6298C103.97 42.963 103.809 43.3296 103.72 43.7294C103.633 44.1373 103.646 44.5673 103.76 45.0195Z" fill="white"/>
<path d="M111.268 49.5838L111.435 51.7375L103.981 52.312L104.092 53.7437L111.546 53.1692L111.714 55.3354L113 55.2362L112.554 49.4847L111.268 49.5838Z" fill="white"/>
<path d="M50 45C49.4477 45 49 45.4477 49 46V68C49 68.5523 49.4477 69 50 69H53C53.5523 69 54 68.5523 54 68V46C54 45.4477 53.5523 45 53 45H50Z" fill="white"/>
<path d="M63 45C62.4477 45 62 45.4477 62 46V68C62 68.5523 62.4477 69 63 69H66C66.5523 69 67 68.5523 67 68V46C67 45.4477 66.5523 45 66 45H63Z" fill="white"/>
</svg>
