<svg width="48" height="48" viewBox="0 0 48 48" fill="none" xmlns="http://www.w3.org/2000/svg">
<circle cx="24" cy="24" r="23" stroke="white" stroke-opacity="0.3" stroke-width="2"/>
<path d="M18.5922 26.6683C19.3073 26.6683 19.933 26.397 20.3799 25.9447L26.7263 29.6533C26.6369 29.8342 26.6369 30.1055 26.6369 30.2864C26.6369 31.8241 27.7989 33 29.3184 33C30.838 33 32 31.8241 32 30.2864C32 28.7487 30.838 27.5729 29.3184 27.5729C28.6034 27.5729 27.9777 27.8442 27.5307 28.2965L21.1844 24.5879C21.2737 24.407 21.2737 24.1357 21.2737 23.9548C21.2737 23.7739 21.2737 23.5025 21.1844 23.3216L27.5307 19.5226C27.9777 19.9749 28.6034 20.2462 29.3184 20.2462C30.7486 20.2462 31.9106 19.0704 31.9106 17.6231C31.9106 16.1759 30.7486 15 29.3184 15C27.8883 15 26.7263 16.1759 26.7263 17.6231C26.7263 17.804 26.7263 17.9849 26.8156 18.2563L20.4693 22.0553C20.0223 21.603 19.3966 21.3317 18.6816 21.3317C17.162 21.3317 16 22.5075 16 24.0452C16 25.5829 17.0726 26.6683 18.5922 26.6683Z" fill="white"/>
</svg>
