<svg width="48" height="48" viewBox="0 0 48 48" fill="none" xmlns="http://www.w3.org/2000/svg">
<circle cx="24" cy="24" r="23" stroke="white" stroke-opacity="0.3" stroke-width="2"/>
<path fill-rule="evenodd" clip-rule="evenodd" d="M32.1739 27.579C31.7604 27.0832 31.2898 26.636 30.8356 26.2053C30.6736 26.0523 30.5062 25.8947 30.3451 25.7353C29.8828 25.2835 29.8665 25.1112 30.232 24.599C30.4854 24.2443 30.7542 23.8888 31.0148 23.5452C31.25 23.2336 31.4934 22.9129 31.7269 22.5894L31.7749 22.5225C32.2219 21.903 32.6833 21.2643 32.9286 20.4918C32.9928 20.2893 33.0598 19.9897 32.9068 19.7395C32.753 19.4884 32.4562 19.4114 32.2463 19.3775C32.1422 19.3583 32.0391 19.3555 31.9432 19.3555L29.0204 19.3537H28.996C28.5535 19.3537 28.2558 19.5626 28.0857 19.9915C27.9219 20.4011 27.7436 20.8382 27.5391 21.2524C27.1328 22.079 26.6162 23.0329 25.8687 23.8274L25.838 23.8604C25.7493 23.9557 25.6498 24.0611 25.5765 24.0611C25.5656 24.0611 25.5529 24.0611 25.5394 24.0565C25.3846 23.9969 25.2806 23.6194 25.2851 23.4471C25.2851 23.4453 25.2851 23.4425 25.2851 23.4389L25.2833 20.0547C25.2833 20.0447 25.2824 20.0318 25.2806 20.0208C25.2064 19.4701 25.0417 19.1292 24.4191 19.0055C24.4028 19.0027 24.3856 19 24.3694 19H21.329C20.834 19 20.5607 19.2025 20.3047 19.504C20.2359 19.5856 20.0911 19.7532 20.1626 19.9567C20.235 20.1638 20.4703 20.2068 20.5472 20.2215C20.9272 20.2939 21.1417 20.5276 21.2023 20.9344C21.3082 21.6419 21.3217 22.397 21.2439 23.3078C21.2222 23.5626 21.1788 23.7577 21.1082 23.9264C21.091 23.9658 21.0331 24.0913 20.9734 24.0913C20.9544 24.0913 20.9001 24.0849 20.7996 24.0171C20.5644 23.8558 20.3915 23.624 20.1906 23.339C19.5066 22.3695 18.932 21.3046 18.4343 20.0767C18.2497 19.625 17.9058 19.3711 17.4643 19.3638C16.9792 19.3555 16.5395 19.3528 16.1196 19.3528C15.6618 19.3528 15.2365 19.3574 14.8211 19.3656C14.4664 19.3711 14.2203 19.4774 14.0909 19.6836C13.9615 19.887 13.9705 20.1564 14.1162 20.4818C15.2862 23.0851 16.3467 24.9793 17.5557 26.6195C18.4017 27.7705 19.2514 28.5659 20.2277 29.123C21.2566 29.7132 22.4103 30 23.7531 30C23.9052 30 24.0626 29.9954 24.2219 29.989C25.0019 29.9505 25.2914 29.6683 25.3276 28.9077C25.3457 28.5173 25.3882 28.1095 25.5792 27.7622C25.6995 27.5442 25.8117 27.5442 25.8488 27.5442C25.9194 27.5442 26.0081 27.5762 26.1022 27.6367C26.2723 27.7485 26.418 27.896 26.5374 28.0271C26.6496 28.1508 26.7609 28.2754 26.8722 28.4009C27.112 28.6694 27.3609 28.948 27.6197 29.211C28.187 29.7892 28.8123 30.0431 29.5308 29.9899H32.211C32.2164 29.9899 32.2228 29.989 32.2282 29.9881C32.4951 29.9716 32.7268 29.8222 32.8625 29.5812C33.0317 29.2834 33.0281 28.9022 32.8535 28.5613C32.6562 28.1783 32.3992 27.8484 32.1739 27.579Z" fill="white"/>
</svg>
