<svg width="48" height="48" viewBox="0 0 48 48" fill="none" xmlns="http://www.w3.org/2000/svg">
<circle cx="24" cy="24" r="23" stroke="white" stroke-opacity="0.3" stroke-width="2"/>
<path fill-rule="evenodd" clip-rule="evenodd" d="M32.2984 19.1159C31.6487 18.3233 30.449 18 28.1581 18H19.8418C17.4984 18 16.2784 18.3442 15.6311 19.1881C15 20.0108 15 21.2231 15 22.901V26.099C15 29.3496 15.7488 31 19.8418 31H28.1581C30.1449 31 31.2457 30.7147 31.958 30.0152C32.6884 29.2979 33 28.1267 33 26.099V22.901C33 21.1316 32.9512 19.9121 32.2984 19.1159ZM26.556 24.9415L22.7797 26.967C22.6952 27.0123 22.6029 27.0347 22.5107 27.0347C22.4063 27.0347 22.3021 27.0059 22.2099 26.9486C22.0362 26.8405 21.9301 26.6473 21.9301 26.4388V22.401C21.9301 22.1929 22.0358 21.9998 22.2092 21.8917C22.3827 21.7836 22.5984 21.7762 22.7783 21.8722L26.5547 23.8846C26.7468 23.987 26.8675 24.1905 26.8678 24.4126C26.8681 24.6348 26.7479 24.8387 26.556 24.9415Z" fill="white"/>
</svg>
